<?xml version="1.0" standalone="no"?>
<svg xmlns="http://www.w3.org/2000/svg" width="2000" height="2000" viewBox="0 0 2000 2000"><defs><clipPath id="clip-path-dot-color"><circle cx="132" cy="752" r="31" transform="rotate(0,132,752)"/><circle cx="132" cy="938" r="31" transform="rotate(0,132,938)"/><circle cx="132" cy="1000" r="31" transform="rotate(0,132,1000)"/><circle cx="132" cy="1062" r="31" transform="rotate(0,132,1062)"/><circle cx="132" cy="1124" r="31" transform="rotate(0,132,1124)"/><circle cx="132" cy="1186" r="31" transform="rotate(0,132,1186)"/><circle cx="132" cy="1248" r="31" transform="rotate(0,132,1248)"/><circle cx="132" cy="1310" r="31" transform="rotate(0,132,1310)"/><circle cx="194" cy="628" r="31" transform="rotate(0,194,628)"/><circle cx="194" cy="938" r="31" transform="rotate(0,194,938)"/><circle cx="194" cy="1062" r="31" transform="rotate(0,194,1062)"/><circle cx="194" cy="1124" r="31" transform="rotate(0,194,1124)"/><circle cx="194" cy="1186" r="31" transform="rotate(0,194,1186)"/><circle cx="194" cy="1372" r="31" transform="rotate(0,194,1372)"/><circle cx="256" cy="876" r="31" transform="rotate(0,256,876)"/><circle cx="256" cy="1000" r="31" transform="rotate(0,256,1000)"/><circle cx="256" cy="1248" r="31" transform="rotate(0,256,1248)"/><circle cx="256" cy="1372" r="31" transform="rotate(0,256,1372)"/><circle cx="318" cy="628" r="31" transform="rotate(0,318,628)"/><circle cx="318" cy="690" r="31" transform="rotate(0,318,690)"/><circle cx="318" cy="814" r="31" transform="rotate(0,318,814)"/><circle cx="318" cy="1124" r="31" transform="rotate(0,318,1124)"/><circle cx="318" cy="1186" r="31" transform="rotate(0,318,1186)"/><circle cx="318" cy="1310" r="31" transform="rotate(0,318,1310)"/><circle cx="318" cy="1372" r="31" transform="rotate(0,318,1372)"/><circle cx="380" cy="628" r="31" transform="rotate(0,380,628)"/><circle cx="380" cy="690" r="31" transform="rotate(0,380,690)"/><circle cx="380" cy="752" r="31" transform="rotate(0,380,752)"/><circle cx="380" cy="938" r="31" transform="rotate(0,380,938)"/><circle cx="380" cy="1000" r="31" transform="rotate(0,380,1000)"/><circle cx="380" cy="1062" r="31" transform="rotate(0,380,1062)"/><circle cx="380" cy="1186" r="31" transform="rotate(0,380,1186)"/><circle cx="380" cy="1310" r="31" transform="rotate(0,380,1310)"/><circle cx="442" cy="690" r="31" transform="rotate(0,442,690)"/><circle cx="442" cy="752" r="31" transform="rotate(0,442,752)"/><circle cx="442" cy="876" r="31" transform="rotate(0,442,876)"/><circle cx="442" cy="1000" r="31" transform="rotate(0,442,1000)"/><circle cx="442" cy="1124" r="31" transform="rotate(0,442,1124)"/><circle cx="442" cy="1186" r="31" transform="rotate(0,442,1186)"/><circle cx="442" cy="1248" r="31" transform="rotate(0,442,1248)"/><circle cx="504" cy="628" r="31" transform="rotate(0,504,628)"/><circle cx="504" cy="752" r="31" transform="rotate(0,504,752)"/><circle cx="504" cy="876" r="31" transform="rotate(0,504,876)"/><circle cx="504" cy="1000" r="31" transform="rotate(0,504,1000)"/><circle cx="504" cy="1124" r="31" transform="rotate(0,504,1124)"/><circle cx="504" cy="1248" r="31" transform="rotate(0,504,1248)"/><circle cx="504" cy="1372" r="31" transform="rotate(0,504,1372)"/><circle cx="566" cy="628" r="31" transform="rotate(0,566,628)"/><circle cx="566" cy="876" r="31" transform="rotate(0,566,876)"/><circle cx="566" cy="938" r="31" transform="rotate(0,566,938)"/><circle cx="566" cy="1062" r="31" transform="rotate(0,566,1062)"/><circle cx="566" cy="1124" r="31" transform="rotate(0,566,1124)"/><circle cx="566" cy="1372" r="31" transform="rotate(0,566,1372)"/><circle cx="628" cy="194" r="31" transform="rotate(0,628,194)"/><circle cx="628" cy="318" r="31" transform="rotate(0,628,318)"/><circle cx="628" cy="380" r="31" transform="rotate(0,628,380)"/><circle cx="628" cy="442" r="31" transform="rotate(0,628,442)"/><circle cx="628" cy="504" r="31" transform="rotate(0,628,504)"/><circle cx="628" cy="628" r="31" transform="rotate(0,628,628)"/><circle cx="628" cy="814" r="31" transform="rotate(0,628,814)"/><circle cx="628" cy="1000" r="31" transform="rotate(0,628,1000)"/><circle cx="628" cy="1124" r="31" transform="rotate(0,628,1124)"/><circle cx="628" cy="1248" r="31" transform="rotate(0,628,1248)"/><circle cx="628" cy="1310" r="31" transform="rotate(0,628,1310)"/><circle cx="628" cy="1434" r="31" transform="rotate(0,628,1434)"/><circle cx="628" cy="1496" r="31" transform="rotate(0,628,1496)"/><circle cx="628" cy="1620" r="31" transform="rotate(0,628,1620)"/><circle cx="628" cy="1682" r="31" transform="rotate(0,628,1682)"/><circle cx="628" cy="1806" r="31" transform="rotate(0,628,1806)"/><circle cx="690" cy="194" r="31" transform="rotate(0,690,194)"/><circle cx="690" cy="256" r="31" transform="rotate(0,690,256)"/><circle cx="690" cy="318" r="31" transform="rotate(0,690,318)"/><circle cx="690" cy="566" r="31" transform="rotate(0,690,566)"/><circle cx="690" cy="690" r="31" transform="rotate(0,690,690)"/><circle cx="690" cy="938" r="31" transform="rotate(0,690,938)"/><circle cx="690" cy="1062" r="31" transform="rotate(0,690,1062)"/><circle cx="690" cy="1124" r="31" transform="rotate(0,690,1124)"/><circle cx="690" cy="1186" r="31" transform="rotate(0,690,1186)"/><circle cx="690" cy="1372" r="31" transform="rotate(0,690,1372)"/><circle cx="690" cy="1558" r="31" transform="rotate(0,690,1558)"/><circle cx="690" cy="1620" r="31" transform="rotate(0,690,1620)"/><circle cx="690" cy="1744" r="31" transform="rotate(0,690,1744)"/><circle cx="690" cy="1806" r="31" transform="rotate(0,690,1806)"/><circle cx="752" cy="318" r="31" transform="rotate(0,752,318)"/><circle cx="752" cy="380" r="31" transform="rotate(0,752,380)"/><circle cx="752" cy="504" r="31" transform="rotate(0,752,504)"/><circle cx="752" cy="566" r="31" transform="rotate(0,752,566)"/><circle cx="752" cy="628" r="31" transform="rotate(0,752,628)"/><circle cx="752" cy="1372" r="31" transform="rotate(0,752,1372)"/><circle cx="752" cy="1434" r="31" transform="rotate(0,752,1434)"/><circle cx="752" cy="1496" r="31" transform="rotate(0,752,1496)"/><circle cx="752" cy="1744" r="31" transform="rotate(0,752,1744)"/><circle cx="814" cy="194" r="31" transform="rotate(0,814,194)"/><circle cx="814" cy="318" r="31" transform="rotate(0,814,318)"/><circle cx="814" cy="628" r="31" transform="rotate(0,814,628)"/><circle cx="814" cy="1372" r="31" transform="rotate(0,814,1372)"/><circle cx="814" cy="1682" r="31" transform="rotate(0,814,1682)"/><circle cx="814" cy="1868" r="31" transform="rotate(0,814,1868)"/><circle cx="876" cy="194" r="31" transform="rotate(0,876,194)"/><circle cx="876" cy="256" r="31" transform="rotate(0,876,256)"/><circle cx="876" cy="318" r="31" transform="rotate(0,876,318)"/><circle cx="876" cy="442" r="31" transform="rotate(0,876,442)"/><circle cx="876" cy="504" r="31" transform="rotate(0,876,504)"/><circle cx="876" cy="628" r="31" transform="rotate(0,876,628)"/><circle cx="876" cy="690" r="31" transform="rotate(0,876,690)"/><circle cx="876" cy="1310" r="31" transform="rotate(0,876,1310)"/><circle cx="876" cy="1434" r="31" transform="rotate(0,876,1434)"/><circle cx="876" cy="1496" r="31" transform="rotate(0,876,1496)"/><circle cx="876" cy="1682" r="31" transform="rotate(0,876,1682)"/><circle cx="876" cy="1744" r="31" transform="rotate(0,876,1744)"/><circle cx="876" cy="1806" r="31" transform="rotate(0,876,1806)"/><circle cx="938" cy="256" r="31" transform="rotate(0,938,256)"/><circle cx="938" cy="442" r="31" transform="rotate(0,938,442)"/><circle cx="938" cy="566" r="31" transform="rotate(0,938,566)"/><circle cx="938" cy="628" r="31" transform="rotate(0,938,628)"/><circle cx="938" cy="690" r="31" transform="rotate(0,938,690)"/><circle cx="938" cy="1496" r="31" transform="rotate(0,938,1496)"/><circle cx="938" cy="1620" r="31" transform="rotate(0,938,1620)"/><circle cx="938" cy="1744" r="31" transform="rotate(0,938,1744)"/><circle cx="938" cy="1806" r="31" transform="rotate(0,938,1806)"/><circle cx="938" cy="1868" r="31" transform="rotate(0,938,1868)"/><circle cx="1000" cy="132" r="31" transform="rotate(0,1000,132)"/><circle cx="1000" cy="194" r="31" transform="rotate(0,1000,194)"/><circle cx="1000" cy="318" r="31" transform="rotate(0,1000,318)"/><circle cx="1000" cy="380" r="31" transform="rotate(0,1000,380)"/><circle cx="1000" cy="504" r="31" transform="rotate(0,1000,504)"/><circle cx="1000" cy="690" r="31" transform="rotate(0,1000,690)"/><circle cx="1000" cy="1310" r="31" transform="rotate(0,1000,1310)"/><circle cx="1000" cy="1372" r="31" transform="rotate(0,1000,1372)"/><circle cx="1000" cy="1496" r="31" transform="rotate(0,1000,1496)"/><circle cx="1000" cy="1558" r="31" transform="rotate(0,1000,1558)"/><circle cx="1000" cy="1682" r="31" transform="rotate(0,1000,1682)"/><circle cx="1000" cy="1868" r="31" transform="rotate(0,1000,1868)"/><circle cx="1062" cy="132" r="31" transform="rotate(0,1062,132)"/><circle cx="1062" cy="256" r="31" transform="rotate(0,1062,256)"/><circle cx="1062" cy="318" r="31" transform="rotate(0,1062,318)"/><circle cx="1062" cy="380" r="31" transform="rotate(0,1062,380)"/><circle cx="1062" cy="442" r="31" transform="rotate(0,1062,442)"/><circle cx="1062" cy="566" r="31" transform="rotate(0,1062,566)"/><circle cx="1062" cy="628" r="31" transform="rotate(0,1062,628)"/><circle cx="1062" cy="690" r="31" transform="rotate(0,1062,690)"/><circle cx="1062" cy="1372" r="31" transform="rotate(0,1062,1372)"/><circle cx="1062" cy="1620" r="31" transform="rotate(0,1062,1620)"/><circle cx="1062" cy="1682" r="31" transform="rotate(0,1062,1682)"/><circle cx="1062" cy="1744" r="31" transform="rotate(0,1062,1744)"/><circle cx="1062" cy="1806" r="31" transform="rotate(0,1062,1806)"/><circle cx="1062" cy="1868" r="31" transform="rotate(0,1062,1868)"/><circle cx="1124" cy="256" r="31" transform="rotate(0,1124,256)"/><circle cx="1124" cy="504" r="31" transform="rotate(0,1124,504)"/><circle cx="1124" cy="1372" r="31" transform="rotate(0,1124,1372)"/><circle cx="1124" cy="1620" r="31" transform="rotate(0,1124,1620)"/><circle cx="1124" cy="1682" r="31" transform="rotate(0,1124,1682)"/><circle cx="1124" cy="1806" r="31" transform="rotate(0,1124,1806)"/><circle cx="1124" cy="1868" r="31" transform="rotate(0,1124,1868)"/><circle cx="1186" cy="132" r="31" transform="rotate(0,1186,132)"/><circle cx="1186" cy="256" r="31" transform="rotate(0,1186,256)"/><circle cx="1186" cy="318" r="31" transform="rotate(0,1186,318)"/><circle cx="1186" cy="380" r="31" transform="rotate(0,1186,380)"/><circle cx="1186" cy="442" r="31" transform="rotate(0,1186,442)"/><circle cx="1186" cy="566" r="31" transform="rotate(0,1186,566)"/><circle cx="1186" cy="1372" r="31" transform="rotate(0,1186,1372)"/><circle cx="1186" cy="1496" r="31" transform="rotate(0,1186,1496)"/><circle cx="1186" cy="1620" r="31" transform="rotate(0,1186,1620)"/><circle cx="1186" cy="1682" r="31" transform="rotate(0,1186,1682)"/><circle cx="1186" cy="1744" r="31" transform="rotate(0,1186,1744)"/><circle cx="1248" cy="132" r="31" transform="rotate(0,1248,132)"/><circle cx="1248" cy="194" r="31" transform="rotate(0,1248,194)"/><circle cx="1248" cy="318" r="31" transform="rotate(0,1248,318)"/><circle cx="1248" cy="380" r="31" transform="rotate(0,1248,380)"/><circle cx="1248" cy="442" r="31" transform="rotate(0,1248,442)"/><circle cx="1248" cy="504" r="31" transform="rotate(0,1248,504)"/><circle cx="1248" cy="566" r="31" transform="rotate(0,1248,566)"/><circle cx="1248" cy="690" r="31" transform="rotate(0,1248,690)"/><circle cx="1248" cy="1310" r="31" transform="rotate(0,1248,1310)"/><circle cx="1248" cy="1558" r="31" transform="rotate(0,1248,1558)"/><circle cx="1248" cy="1682" r="31" transform="rotate(0,1248,1682)"/><circle cx="1248" cy="1868" r="31" transform="rotate(0,1248,1868)"/><circle cx="1310" cy="132" r="31" transform="rotate(0,1310,132)"/><circle cx="1310" cy="194" r="31" transform="rotate(0,1310,194)"/><circle cx="1310" cy="442" r="31" transform="rotate(0,1310,442)"/><circle cx="1310" cy="566" r="31" transform="rotate(0,1310,566)"/><circle cx="1310" cy="690" r="31" transform="rotate(0,1310,690)"/><circle cx="1310" cy="1248" r="31" transform="rotate(0,1310,1248)"/><circle cx="1310" cy="1434" r="31" transform="rotate(0,1310,1434)"/><circle cx="1310" cy="1496" r="31" transform="rotate(0,1310,1496)"/><circle cx="1310" cy="1744" r="31" transform="rotate(0,1310,1744)"/><circle cx="1310" cy="1868" r="31" transform="rotate(0,1310,1868)"/><circle cx="1372" cy="132" r="31" transform="rotate(0,1372,132)"/><circle cx="1372" cy="194" r="31" transform="rotate(0,1372,194)"/><circle cx="1372" cy="256" r="31" transform="rotate(0,1372,256)"/><circle cx="1372" cy="318" r="31" transform="rotate(0,1372,318)"/><circle cx="1372" cy="504" r="31" transform="rotate(0,1372,504)"/><circle cx="1372" cy="566" r="31" transform="rotate(0,1372,566)"/><circle cx="1372" cy="690" r="31" transform="rotate(0,1372,690)"/><circle cx="1372" cy="752" r="31" transform="rotate(0,1372,752)"/><circle cx="1372" cy="876" r="31" transform="rotate(0,1372,876)"/><circle cx="1372" cy="938" r="31" transform="rotate(0,1372,938)"/><circle cx="1372" cy="1000" r="31" transform="rotate(0,1372,1000)"/><circle cx="1372" cy="1062" r="31" transform="rotate(0,1372,1062)"/><circle cx="1372" cy="1124" r="31" transform="rotate(0,1372,1124)"/><circle cx="1372" cy="1186" r="31" transform="rotate(0,1372,1186)"/><circle cx="1372" cy="1310" r="31" transform="rotate(0,1372,1310)"/><circle cx="1372" cy="1372" r="31" transform="rotate(0,1372,1372)"/><circle cx="1372" cy="1434" r="31" transform="rotate(0,1372,1434)"/><circle cx="1372" cy="1496" r="31" transform="rotate(0,1372,1496)"/><circle cx="1372" cy="1558" r="31" transform="rotate(0,1372,1558)"/><circle cx="1372" cy="1620" r="31" transform="rotate(0,1372,1620)"/><circle cx="1372" cy="1682" r="31" transform="rotate(0,1372,1682)"/><circle cx="1372" cy="1744" r="31" transform="rotate(0,1372,1744)"/><circle cx="1372" cy="1806" r="31" transform="rotate(0,1372,1806)"/><circle cx="1434" cy="628" r="31" transform="rotate(0,1434,628)"/><circle cx="1434" cy="690" r="31" transform="rotate(0,1434,690)"/><circle cx="1434" cy="752" r="31" transform="rotate(0,1434,752)"/><circle cx="1434" cy="814" r="31" transform="rotate(0,1434,814)"/><circle cx="1434" cy="938" r="31" transform="rotate(0,1434,938)"/><circle cx="1434" cy="1062" r="31" transform="rotate(0,1434,1062)"/><circle cx="1434" cy="1124" r="31" transform="rotate(0,1434,1124)"/><circle cx="1434" cy="1248" r="31" transform="rotate(0,1434,1248)"/><circle cx="1434" cy="1310" r="31" transform="rotate(0,1434,1310)"/><circle cx="1434" cy="1372" r="31" transform="rotate(0,1434,1372)"/><circle cx="1434" cy="1620" r="31" transform="rotate(0,1434,1620)"/><circle cx="1434" cy="1682" r="31" transform="rotate(0,1434,1682)"/><circle cx="1434" cy="1744" r="31" transform="rotate(0,1434,1744)"/><circle cx="1496" cy="690" r="31" transform="rotate(0,1496,690)"/><circle cx="1496" cy="752" r="31" transform="rotate(0,1496,752)"/><circle cx="1496" cy="814" r="31" transform="rotate(0,1496,814)"/><circle cx="1496" cy="1000" r="31" transform="rotate(0,1496,1000)"/><circle cx="1496" cy="1062" r="31" transform="rotate(0,1496,1062)"/><circle cx="1496" cy="1124" r="31" transform="rotate(0,1496,1124)"/><circle cx="1496" cy="1186" r="31" transform="rotate(0,1496,1186)"/><circle cx="1496" cy="1248" r="31" transform="rotate(0,1496,1248)"/><circle cx="1496" cy="1310" r="31" transform="rotate(0,1496,1310)"/><circle cx="1496" cy="1372" r="31" transform="rotate(0,1496,1372)"/><circle cx="1496" cy="1496" r="31" transform="rotate(0,1496,1496)"/><circle cx="1496" cy="1620" r="31" transform="rotate(0,1496,1620)"/><circle cx="1496" cy="1744" r="31" transform="rotate(0,1496,1744)"/><circle cx="1558" cy="628" r="31" transform="rotate(0,1558,628)"/><circle cx="1558" cy="752" r="31" transform="rotate(0,1558,752)"/><circle cx="1558" cy="876" r="31" transform="rotate(0,1558,876)"/><circle cx="1558" cy="1000" r="31" transform="rotate(0,1558,1000)"/><circle cx="1558" cy="1062" r="31" transform="rotate(0,1558,1062)"/><circle cx="1558" cy="1186" r="31" transform="rotate(0,1558,1186)"/><circle cx="1558" cy="1310" r="31" transform="rotate(0,1558,1310)"/><circle cx="1558" cy="1372" r="31" transform="rotate(0,1558,1372)"/><circle cx="1558" cy="1620" r="31" transform="rotate(0,1558,1620)"/><circle cx="1558" cy="1682" r="31" transform="rotate(0,1558,1682)"/><circle cx="1558" cy="1806" r="31" transform="rotate(0,1558,1806)"/><circle cx="1620" cy="628" r="31" transform="rotate(0,1620,628)"/><circle cx="1620" cy="876" r="31" transform="rotate(0,1620,876)"/><circle cx="1620" cy="1124" r="31" transform="rotate(0,1620,1124)"/><circle cx="1620" cy="1186" r="31" transform="rotate(0,1620,1186)"/><circle cx="1620" cy="1248" r="31" transform="rotate(0,1620,1248)"/><circle cx="1620" cy="1310" r="31" transform="rotate(0,1620,1310)"/><circle cx="1620" cy="1372" r="31" transform="rotate(0,1620,1372)"/><circle cx="1620" cy="1434" r="31" transform="rotate(0,1620,1434)"/><circle cx="1620" cy="1496" r="31" transform="rotate(0,1620,1496)"/><circle cx="1620" cy="1558" r="31" transform="rotate(0,1620,1558)"/><circle cx="1620" cy="1620" r="31" transform="rotate(0,1620,1620)"/><circle cx="1682" cy="628" r="31" transform="rotate(0,1682,628)"/><circle cx="1682" cy="752" r="31" transform="rotate(0,1682,752)"/><circle cx="1682" cy="814" r="31" transform="rotate(0,1682,814)"/><circle cx="1682" cy="1000" r="31" transform="rotate(0,1682,1000)"/><circle cx="1682" cy="1124" r="31" transform="rotate(0,1682,1124)"/><circle cx="1682" cy="1186" r="31" transform="rotate(0,1682,1186)"/><circle cx="1682" cy="1558" r="31" transform="rotate(0,1682,1558)"/><circle cx="1682" cy="1682" r="31" transform="rotate(0,1682,1682)"/><circle cx="1682" cy="1806" r="31" transform="rotate(0,1682,1806)"/><circle cx="1744" cy="814" r="31" transform="rotate(0,1744,814)"/><circle cx="1744" cy="1000" r="31" transform="rotate(0,1744,1000)"/><circle cx="1744" cy="1124" r="31" transform="rotate(0,1744,1124)"/><circle cx="1744" cy="1248" r="31" transform="rotate(0,1744,1248)"/><circle cx="1744" cy="1372" r="31" transform="rotate(0,1744,1372)"/><circle cx="1744" cy="1434" r="31" transform="rotate(0,1744,1434)"/><circle cx="1744" cy="1558" r="31" transform="rotate(0,1744,1558)"/><circle cx="1744" cy="1620" r="31" transform="rotate(0,1744,1620)"/><circle cx="1744" cy="1682" r="31" transform="rotate(0,1744,1682)"/><circle cx="1744" cy="1744" r="31" transform="rotate(0,1744,1744)"/><circle cx="1744" cy="1806" r="31" transform="rotate(0,1744,1806)"/><circle cx="1744" cy="1868" r="31" transform="rotate(0,1744,1868)"/><circle cx="1806" cy="628" r="31" transform="rotate(0,1806,628)"/><circle cx="1806" cy="814" r="31" transform="rotate(0,1806,814)"/><circle cx="1806" cy="1062" r="31" transform="rotate(0,1806,1062)"/><circle cx="1806" cy="1310" r="31" transform="rotate(0,1806,1310)"/><circle cx="1806" cy="1372" r="31" transform="rotate(0,1806,1372)"/><circle cx="1806" cy="1620" r="31" transform="rotate(0,1806,1620)"/><circle cx="1806" cy="1682" r="31" transform="rotate(0,1806,1682)"/><circle cx="1806" cy="1744" r="31" transform="rotate(0,1806,1744)"/><circle cx="1806" cy="1868" r="31" transform="rotate(0,1806,1868)"/><circle cx="1868" cy="814" r="31" transform="rotate(0,1868,814)"/><circle cx="1868" cy="938" r="31" transform="rotate(0,1868,938)"/><circle cx="1868" cy="1000" r="31" transform="rotate(0,1868,1000)"/><circle cx="1868" cy="1310" r="31" transform="rotate(0,1868,1310)"/><circle cx="1868" cy="1372" r="31" transform="rotate(0,1868,1372)"/><circle cx="1868" cy="1558" r="31" transform="rotate(0,1868,1558)"/><circle cx="1868" cy="1620" r="31" transform="rotate(0,1868,1620)"/></clipPath><clipPath id="clip-path-corners-square-color-0-0"><circle cx="132" cy="132" r="31" transform="rotate(0,132,132)"/><circle cx="132" cy="194" r="31" transform="rotate(0,132,194)"/><circle cx="132" cy="256" r="31" transform="rotate(0,132,256)"/><circle cx="132" cy="318" r="31" transform="rotate(0,132,318)"/><circle cx="132" cy="380" r="31" transform="rotate(0,132,380)"/><circle cx="132" cy="442" r="31" transform="rotate(0,132,442)"/><circle cx="132" cy="504" r="31" transform="rotate(0,132,504)"/><circle cx="194" cy="132" r="31" transform="rotate(0,194,132)"/><circle cx="194" cy="504" r="31" transform="rotate(0,194,504)"/><circle cx="256" cy="132" r="31" transform="rotate(0,256,132)"/><circle cx="256" cy="504" r="31" transform="rotate(0,256,504)"/><circle cx="318" cy="132" r="31" transform="rotate(0,318,132)"/><circle cx="318" cy="504" r="31" transform="rotate(0,318,504)"/><circle cx="380" cy="132" r="31" transform="rotate(0,380,132)"/><circle cx="380" cy="504" r="31" transform="rotate(0,380,504)"/><circle cx="442" cy="132" r="31" transform="rotate(0,442,132)"/><circle cx="442" cy="504" r="31" transform="rotate(0,442,504)"/><circle cx="504" cy="132" r="31" transform="rotate(0,504,132)"/><circle cx="504" cy="194" r="31" transform="rotate(0,504,194)"/><circle cx="504" cy="256" r="31" transform="rotate(0,504,256)"/><circle cx="504" cy="318" r="31" transform="rotate(0,504,318)"/><circle cx="504" cy="380" r="31" transform="rotate(0,504,380)"/><circle cx="504" cy="442" r="31" transform="rotate(0,504,442)"/><circle cx="504" cy="504" r="31" transform="rotate(0,504,504)"/></clipPath><clipPath id="clip-path-corners-dot-color-0-0"><circle cx="256" cy="256" r="31" transform="rotate(0,256,256)"/><circle cx="256" cy="318" r="31" transform="rotate(0,256,318)"/><circle cx="256" cy="380" r="31" transform="rotate(0,256,380)"/><circle cx="318" cy="256" r="31" transform="rotate(0,318,256)"/><circle cx="318" cy="318" r="31" transform="rotate(0,318,318)"/><circle cx="318" cy="380" r="31" transform="rotate(0,318,380)"/><circle cx="380" cy="256" r="31" transform="rotate(0,380,256)"/><circle cx="380" cy="318" r="31" transform="rotate(0,380,318)"/><circle cx="380" cy="380" r="31" transform="rotate(0,380,380)"/></clipPath><clipPath id="clip-path-corners-square-color-1-0"><circle cx="1496" cy="132" r="31" transform="rotate(0,1496,132)"/><circle cx="1496" cy="194" r="31" transform="rotate(0,1496,194)"/><circle cx="1496" cy="256" r="31" transform="rotate(0,1496,256)"/><circle cx="1496" cy="318" r="31" transform="rotate(0,1496,318)"/><circle cx="1496" cy="380" r="31" transform="rotate(0,1496,380)"/><circle cx="1496" cy="442" r="31" transform="rotate(0,1496,442)"/><circle cx="1496" cy="504" r="31" transform="rotate(0,1496,504)"/><circle cx="1558" cy="132" r="31" transform="rotate(0,1558,132)"/><circle cx="1558" cy="504" r="31" transform="rotate(0,1558,504)"/><circle cx="1620" cy="132" r="31" transform="rotate(0,1620,132)"/><circle cx="1620" cy="504" r="31" transform="rotate(0,1620,504)"/><circle cx="1682" cy="132" r="31" transform="rotate(0,1682,132)"/><circle cx="1682" cy="504" r="31" transform="rotate(0,1682,504)"/><circle cx="1744" cy="132" r="31" transform="rotate(0,1744,132)"/><circle cx="1744" cy="504" r="31" transform="rotate(0,1744,504)"/><circle cx="1806" cy="132" r="31" transform="rotate(0,1806,132)"/><circle cx="1806" cy="504" r="31" transform="rotate(0,1806,504)"/><circle cx="1868" cy="132" r="31" transform="rotate(0,1868,132)"/><circle cx="1868" cy="194" r="31" transform="rotate(0,1868,194)"/><circle cx="1868" cy="256" r="31" transform="rotate(0,1868,256)"/><circle cx="1868" cy="318" r="31" transform="rotate(0,1868,318)"/><circle cx="1868" cy="380" r="31" transform="rotate(0,1868,380)"/><circle cx="1868" cy="442" r="31" transform="rotate(0,1868,442)"/><circle cx="1868" cy="504" r="31" transform="rotate(0,1868,504)"/></clipPath><clipPath id="clip-path-corners-dot-color-1-0"><circle cx="1620" cy="256" r="31" transform="rotate(0,1620,256)"/><circle cx="1620" cy="318" r="31" transform="rotate(0,1620,318)"/><circle cx="1620" cy="380" r="31" transform="rotate(0,1620,380)"/><circle cx="1682" cy="256" r="31" transform="rotate(0,1682,256)"/><circle cx="1682" cy="318" r="31" transform="rotate(0,1682,318)"/><circle cx="1682" cy="380" r="31" transform="rotate(0,1682,380)"/><circle cx="1744" cy="256" r="31" transform="rotate(0,1744,256)"/><circle cx="1744" cy="318" r="31" transform="rotate(0,1744,318)"/><circle cx="1744" cy="380" r="31" transform="rotate(0,1744,380)"/></clipPath><clipPath id="clip-path-corners-square-color-0-1"><circle cx="132" cy="1496" r="31" transform="rotate(0,132,1496)"/><circle cx="132" cy="1558" r="31" transform="rotate(0,132,1558)"/><circle cx="132" cy="1620" r="31" transform="rotate(0,132,1620)"/><circle cx="132" cy="1682" r="31" transform="rotate(0,132,1682)"/><circle cx="132" cy="1744" r="31" transform="rotate(0,132,1744)"/><circle cx="132" cy="1806" r="31" transform="rotate(0,132,1806)"/><circle cx="132" cy="1868" r="31" transform="rotate(0,132,1868)"/><circle cx="194" cy="1496" r="31" transform="rotate(0,194,1496)"/><circle cx="194" cy="1868" r="31" transform="rotate(0,194,1868)"/><circle cx="256" cy="1496" r="31" transform="rotate(0,256,1496)"/><circle cx="256" cy="1868" r="31" transform="rotate(0,256,1868)"/><circle cx="318" cy="1496" r="31" transform="rotate(0,318,1496)"/><circle cx="318" cy="1868" r="31" transform="rotate(0,318,1868)"/><circle cx="380" cy="1496" r="31" transform="rotate(0,380,1496)"/><circle cx="380" cy="1868" r="31" transform="rotate(0,380,1868)"/><circle cx="442" cy="1496" r="31" transform="rotate(0,442,1496)"/><circle cx="442" cy="1868" r="31" transform="rotate(0,442,1868)"/><circle cx="504" cy="1496" r="31" transform="rotate(0,504,1496)"/><circle cx="504" cy="1558" r="31" transform="rotate(0,504,1558)"/><circle cx="504" cy="1620" r="31" transform="rotate(0,504,1620)"/><circle cx="504" cy="1682" r="31" transform="rotate(0,504,1682)"/><circle cx="504" cy="1744" r="31" transform="rotate(0,504,1744)"/><circle cx="504" cy="1806" r="31" transform="rotate(0,504,1806)"/><circle cx="504" cy="1868" r="31" transform="rotate(0,504,1868)"/></clipPath><clipPath id="clip-path-corners-dot-color-0-1"><circle cx="256" cy="1620" r="31" transform="rotate(0,256,1620)"/><circle cx="256" cy="1682" r="31" transform="rotate(0,256,1682)"/><circle cx="256" cy="1744" r="31" transform="rotate(0,256,1744)"/><circle cx="318" cy="1620" r="31" transform="rotate(0,318,1620)"/><circle cx="318" cy="1682" r="31" transform="rotate(0,318,1682)"/><circle cx="318" cy="1744" r="31" transform="rotate(0,318,1744)"/><circle cx="380" cy="1620" r="31" transform="rotate(0,380,1620)"/><circle cx="380" cy="1682" r="31" transform="rotate(0,380,1682)"/><circle cx="380" cy="1744" r="31" transform="rotate(0,380,1744)"/></clipPath></defs><rect x="0" y="0" height="2000" width="2000" clip-path="url('#clip-path-background-color')" fill="#ffffff"/><rect x="101" y="101" height="1798" width="1798" clip-path="url('#clip-path-dot-color')" fill="#000000"/><rect x="101" y="101" height="434" width="434" clip-path="url('#clip-path-corners-square-color-0-0')" fill="#000000"/><rect x="225" y="225" height="186" width="186" clip-path="url('#clip-path-corners-dot-color-0-0')" fill="#000000"/><rect x="1465" y="101" height="434" width="434" clip-path="url('#clip-path-corners-square-color-1-0')" fill="#000000"/><rect x="1589" y="225" height="186" width="186" clip-path="url('#clip-path-corners-dot-color-1-0')" fill="#000000"/><rect x="101" y="1465" height="434" width="434" clip-path="url('#clip-path-corners-square-color-0-1')" fill="#000000"/><rect x="225" y="1589" height="186" width="186" clip-path="url('#clip-path-corners-dot-color-0-1')" fill="#000000"/><svg xmlns="http://www.w3.org/2000/svg" fill="none" viewBox="0 0 272 272" height="558px" width="558px" x="721" y="721">
<circle stroke="white" fill="#111725" r="135.5" cy="136" cx="136"/>
<path fill="white" d="M96.2742 113.728C96.2742 114.752 96.0502 115.904 95.6022 117.184C95.1862 118.432 94.4982 119.616 93.5382 120.736C92.5782 121.824 91.3462 122.752 89.8422 123.52C88.3382 124.288 86.5142 124.672 84.3702 124.672C82.6422 124.672 80.9302 124.304 79.2342 123.568C77.5382 122.8 76.0182 121.616 74.6742 120.016C73.3302 118.384 72.2422 116.304 71.4102 113.776C70.6102 111.216 70.2102 108.144 70.2102 104.56C70.2102 101.648 70.5942 98.928 71.3622 96.4C72.1622 93.872 73.2342 91.68 74.5782 89.824C75.9222 87.936 77.4902 86.464 79.2822 85.408C81.0742 84.32 82.9782 83.776 84.9942 83.776C86.3062 83.776 87.4742 84 88.4982 84.448C89.5222 84.864 90.4022 85.392 91.1382 86.032C91.8742 86.672 92.4662 87.376 92.9142 88.144C93.3942 88.912 93.7622 89.632 94.0182 90.304C93.9542 89.312 93.9062 88.544 93.8742 88C93.8422 87.456 93.8102 87.056 93.7782 86.8C93.7782 86.512 93.7782 86.336 93.7782 86.272C93.7782 86.208 93.7782 86.176 93.7782 86.176C93.7782 85.376 94.0822 84.976 94.6902 84.976C95.0102 84.976 95.2502 85.104 95.4102 85.36C95.5702 85.616 95.6502 85.856 95.6502 86.08C95.6502 87.2 95.6182 88.448 95.5542 89.824C95.4902 91.168 95.4582 92.416 95.4582 93.568C95.4582 94.592 95.4742 95.616 95.5062 96.64C95.5382 97.632 95.5542 98.64 95.5542 99.664C95.5542 100.112 95.5062 100.496 95.4102 100.816C95.3142 101.136 95.0582 101.296 94.6422 101.296C94.1942 101.296 93.9062 101.008 93.7782 100.432C93.6822 99.824 93.6342 99.168 93.6342 98.464C93.6342 96.704 93.4742 95.024 93.1542 93.424C92.8662 91.824 92.3702 90.432 91.6662 89.248C90.9942 88.032 90.1142 87.072 89.0262 86.368C87.9382 85.632 86.6102 85.264 85.0422 85.264C83.1542 85.264 81.4262 85.808 79.8582 86.896C78.3222 87.952 76.9942 89.392 75.8742 91.216C74.7862 93.008 73.9222 95.072 73.2822 97.408C72.6742 99.712 72.3702 102.112 72.3702 104.608C72.3702 107.136 72.6262 109.536 73.1382 111.808C73.6502 114.048 74.4182 116.016 75.4422 117.712C76.4662 119.376 77.7462 120.704 79.2822 121.696C80.8502 122.656 82.6742 123.136 84.7542 123.136C86.1622 123.136 87.4102 122.928 88.4982 122.512C89.6182 122.096 90.5942 121.504 91.4262 120.736C92.2582 119.968 92.9462 119.056 93.4902 118C94.0662 116.944 94.4982 115.792 94.7862 114.544C94.8182 114.352 94.8502 114.128 94.8822 113.872C94.9142 113.616 94.9462 113.376 94.9782 113.152C95.0422 112.928 95.1222 112.736 95.2182 112.576C95.3142 112.416 95.4422 112.336 95.6022 112.336C96.0502 112.336 96.2742 112.8 96.2742 113.728ZM116.194 107.248C116.194 107.632 116.162 108.032 116.098 108.448C116.034 108.832 115.906 109.2 115.714 109.552C115.554 109.904 115.314 110.192 114.994 110.416C114.706 110.64 114.322 110.752 113.842 110.752C113.298 110.752 112.882 110.608 112.594 110.32C112.338 110.032 112.21 109.664 112.21 109.216C112.21 108.8 112.306 108.48 112.498 108.256C112.722 108.032 112.946 107.84 113.17 107.68C113.426 107.52 113.65 107.344 113.842 107.152C114.066 106.96 114.178 106.672 114.178 106.288C114.178 105.744 113.97 105.344 113.554 105.088C113.138 104.8 112.61 104.656 111.97 104.656C111.394 104.656 110.77 104.784 110.098 105.04C109.426 105.296 108.802 105.728 108.226 106.336C107.65 106.944 107.17 107.744 106.786 108.736C106.402 109.696 106.21 110.896 106.21 112.336V122.512H108.322C109.986 122.512 111.154 122.592 111.826 122.752C112.498 122.912 112.834 123.12 112.834 123.376C112.834 123.568 112.722 123.728 112.498 123.856C112.306 123.952 112.098 124 111.874 124C111.426 124 110.898 124 110.29 124C109.714 123.968 109.122 123.952 108.514 123.952C107.906 123.92 107.314 123.904 106.738 123.904C106.162 123.872 105.666 123.856 105.25 123.856C104.418 123.856 103.666 123.888 102.994 123.952C102.322 123.984 101.586 124 100.786 124C100.53 124 100.29 123.936 100.066 123.808C99.8422 123.68 99.7302 123.536 99.7302 123.376C99.7302 123.184 99.9862 123.008 100.498 122.848C101.01 122.688 101.682 122.576 102.514 122.512C103.09 122.48 103.442 122.4 103.57 122.272C103.698 122.144 103.81 121.808 103.906 121.264C104.002 120.752 104.066 120.096 104.098 119.296C104.162 118.496 104.21 117.456 104.242 116.176C104.306 114.864 104.338 113.264 104.338 111.376C104.37 109.488 104.386 107.2 104.386 104.512C104.386 104.064 104.146 103.84 103.666 103.84H98.9142C98.5942 103.84 98.3542 103.76 98.1942 103.6C98.0342 103.44 97.9542 103.312 97.9542 103.216C97.9542 103.088 98.1782 102.976 98.6262 102.88C99.0742 102.752 99.6182 102.656 100.258 102.592C100.898 102.496 101.586 102.432 102.322 102.4C103.09 102.368 103.762 102.352 104.338 102.352C105.17 102.352 105.73 102.448 106.018 102.64C106.306 102.832 106.45 103.344 106.45 104.176V106.528C107.218 105.408 108.098 104.576 109.09 104.032C110.082 103.456 111.138 103.168 112.258 103.168C113.442 103.168 114.386 103.488 115.09 104.128C115.826 104.768 116.194 105.808 116.194 107.248ZM139.932 112.672C139.932 114.656 139.596 116.4 138.924 117.904C138.284 119.376 137.436 120.608 136.38 121.6C135.356 122.56 134.204 123.296 132.924 123.808C131.644 124.288 130.364 124.528 129.084 124.528C127.676 124.528 126.348 124.256 125.1 123.712C123.852 123.136 122.764 122.336 121.836 121.312C120.908 120.288 120.156 119.072 119.58 117.664C119.036 116.224 118.764 114.656 118.764 112.96C118.764 111.296 119.036 109.76 119.58 108.352C120.124 106.912 120.892 105.68 121.884 104.656C122.876 103.632 124.044 102.832 125.388 102.256C126.732 101.648 128.22 101.344 129.852 101.344C131.516 101.344 132.972 101.648 134.22 102.256C135.5 102.864 136.556 103.696 137.388 104.752C138.22 105.776 138.844 106.976 139.26 108.352C139.708 109.696 139.932 111.136 139.932 112.672ZM129.612 102.784C128.46 102.784 127.356 103.008 126.3 103.456C125.276 103.904 124.364 104.56 123.564 105.424C122.764 106.288 122.124 107.344 121.644 108.592C121.164 109.84 120.924 111.28 120.924 112.912C120.924 114.608 121.18 116.096 121.692 117.376C122.204 118.656 122.86 119.712 123.66 120.544C124.492 121.376 125.388 122 126.348 122.416C127.308 122.832 128.252 123.04 129.18 123.04C130.076 123.04 131.036 122.848 132.06 122.464C133.084 122.048 134.028 121.424 134.892 120.592C135.756 119.728 136.46 118.656 137.004 117.376C137.58 116.064 137.868 114.512 137.868 112.72C137.868 111.28 137.66 109.952 137.244 108.736C136.86 107.52 136.3 106.48 135.564 105.616C134.86 104.72 133.996 104.032 132.972 103.552C131.948 103.04 130.828 102.784 129.612 102.784ZM164.806 121.6C166.054 118.656 167.046 116.24 167.782 114.352C168.518 112.432 169.078 110.912 169.462 109.792C169.846 108.64 170.102 107.808 170.23 107.296C170.358 106.752 170.422 106.352 170.422 106.096C170.422 105.552 170.07 105.28 169.366 105.28H167.686C167.334 105.28 167.046 105.232 166.822 105.136C166.63 105.04 166.534 104.912 166.534 104.752C166.534 104.464 167.03 104.272 168.022 104.176C169.014 104.048 170.742 103.984 173.206 103.984C174.07 103.984 174.758 104 175.27 104.032C175.782 104.032 176.182 104.064 176.47 104.128C176.758 104.16 176.95 104.224 177.046 104.32C177.142 104.384 177.19 104.48 177.19 104.608C177.19 104.864 177.062 105.04 176.806 105.136C176.582 105.232 176.15 105.28 175.51 105.28C174.774 105.28 174.294 105.312 174.07 105.376C173.878 105.44 173.67 105.552 173.446 105.712C173.35 105.776 173.254 105.872 173.158 106C173.062 106.128 172.918 106.384 172.726 106.768C172.566 107.152 172.326 107.712 172.006 108.448C171.718 109.152 171.318 110.144 170.806 111.424C170.294 112.704 169.654 114.32 168.886 116.272C168.118 118.192 167.174 120.528 166.054 123.28C165.798 123.856 165.542 124.256 165.286 124.48C165.03 124.704 164.774 124.816 164.518 124.816C164.038 124.816 163.702 124.496 163.51 123.856L158.566 106L153.574 122.608C153.478 122.96 153.334 123.216 153.142 123.376C152.95 123.536 152.758 123.616 152.566 123.616C152.374 123.616 152.166 123.536 151.942 123.376C151.75 123.184 151.574 122.88 151.414 122.464L144.838 104.416C144.614 103.872 144.358 103.504 144.07 103.312C143.782 103.088 143.27 102.976 142.534 102.976C141.638 102.976 141.014 102.912 140.662 102.784C140.278 102.656 140.086 102.48 140.086 102.256C140.086 102.032 140.278 101.888 140.662 101.824C141.014 101.728 141.702 101.68 142.726 101.68H148.678C149.606 101.68 150.246 101.728 150.598 101.824C150.982 101.888 151.174 102.032 151.174 102.256C151.174 102.736 150.582 102.976 149.398 102.976H147.574C147.126 102.976 146.902 103.136 146.902 103.456C146.902 103.616 146.966 103.984 147.094 104.56C147.254 105.104 147.526 106 147.91 107.248C148.326 108.496 148.902 110.176 149.638 112.288C150.374 114.368 151.35 117.024 152.566 120.256C153.462 117.184 154.198 114.672 154.774 112.72C155.35 110.768 155.814 109.2 156.166 108.016C156.518 106.832 156.774 105.968 156.934 105.424C157.126 104.88 157.286 104.464 157.414 104.176C157.574 103.824 157.766 103.584 157.99 103.456C158.214 103.296 158.454 103.216 158.71 103.216C158.934 103.216 159.126 103.28 159.286 103.408C159.478 103.536 159.654 103.792 159.814 104.176C159.878 104.336 159.974 104.608 160.102 104.992C160.23 105.376 160.454 106.16 160.774 107.344C161.126 108.496 161.606 110.192 162.214 112.432C162.854 114.672 163.718 117.728 164.806 121.6ZM178.584 84.832C178.584 84.384 178.744 84 179.064 83.68C179.384 83.36 179.8 83.2 180.312 83.2C180.92 83.2 181.4 83.392 181.752 83.776C182.136 84.16 182.328 84.672 182.328 85.312C182.328 85.632 182.264 86.112 182.136 86.752C182.008 87.392 181.832 88.048 181.608 88.72C181.384 89.36 181.112 89.92 180.792 90.4C180.472 90.88 180.104 91.12 179.688 91.12C179.528 91.12 179.352 91.056 179.16 90.928C179 90.768 178.92 90.592 178.92 90.4C178.92 90.272 178.968 90.064 179.064 89.776C179.16 89.456 179.256 89.12 179.352 88.768C179.48 88.416 179.592 88.08 179.688 87.76C179.784 87.408 179.832 87.136 179.832 86.944C179.832 86.784 179.768 86.64 179.64 86.512C179.512 86.384 179.368 86.24 179.208 86.08C179.048 85.92 178.904 85.744 178.776 85.552C178.648 85.36 178.584 85.12 178.584 84.832ZM187.529 122.224C187.561 122.48 187.577 122.752 187.577 123.04C187.577 123.328 187.577 123.568 187.577 123.76C187.577 124.24 187.529 124.64 187.433 124.96C187.337 125.28 187.113 125.44 186.761 125.44C186.537 125.44 186.345 125.36 186.185 125.2C186.057 125.04 185.993 124.736 185.993 124.288C185.993 124.032 186.009 123.6 186.041 122.992C186.073 122.384 186.089 121.856 186.089 121.408C186.089 120.8 186.057 120.112 185.993 119.344C185.929 118.576 185.897 117.904 185.897 117.328C185.897 116.304 186.121 115.792 186.569 115.792C187.049 115.792 187.337 116.352 187.433 117.472C187.497 118.592 187.625 119.456 187.817 120.064C188.009 120.672 188.409 121.248 189.017 121.792C189.753 122.464 190.569 122.944 191.465 123.232C192.393 123.488 193.353 123.616 194.345 123.616C194.953 123.616 195.593 123.552 196.265 123.424C196.937 123.264 197.545 123.024 198.089 122.704C198.633 122.352 199.081 121.904 199.433 121.36C199.817 120.816 200.009 120.128 200.009 119.296C200.009 118.56 199.849 117.968 199.529 117.52C199.209 117.04 198.745 116.64 198.137 116.32C197.529 115.968 196.777 115.68 195.881 115.456C194.985 115.2 193.961 114.944 192.809 114.688C190.793 114.24 189.225 113.552 188.105 112.624C186.985 111.696 186.425 110.32 186.425 108.496C186.425 107.344 186.633 106.368 187.049 105.568C187.497 104.768 188.073 104.112 188.777 103.6C189.513 103.056 190.329 102.672 191.225 102.448C192.153 102.192 193.097 102.064 194.057 102.064C194.985 102.064 195.785 102.16 196.457 102.352C197.129 102.544 197.705 102.8 198.185 103.12C198.665 103.44 199.049 103.792 199.337 104.176C199.625 104.528 199.865 104.864 200.057 105.184C200.025 104.768 199.993 104.336 199.961 103.888C199.961 103.44 199.961 103.088 199.961 102.832C199.961 102.192 200.025 101.76 200.153 101.536C200.281 101.312 200.473 101.2 200.729 101.2C201.017 101.2 201.225 101.328 201.353 101.584C201.513 101.808 201.593 102.096 201.593 102.448C201.593 104.368 201.561 105.968 201.497 107.248C201.465 108.496 201.449 109.296 201.449 109.648C201.449 109.936 201.401 110.224 201.305 110.512C201.209 110.768 201.017 110.896 200.729 110.896C200.441 110.896 200.233 110.768 200.105 110.512C200.009 110.224 199.945 109.952 199.913 109.696C199.881 109.44 199.849 109.152 199.817 108.832C199.817 108.48 199.737 108.064 199.577 107.584C199.417 107.008 199.193 106.48 198.905 106C198.617 105.488 198.249 105.056 197.801 104.704C197.353 104.352 196.809 104.08 196.169 103.888C195.529 103.664 194.761 103.552 193.865 103.552C193.065 103.552 192.313 103.648 191.609 103.84C190.905 104 190.297 104.288 189.785 104.704C189.273 105.088 188.873 105.6 188.585 106.24C188.297 106.848 188.153 107.6 188.153 108.496C188.153 109.328 188.281 110.016 188.537 110.56C188.825 111.072 189.241 111.504 189.785 111.856C190.361 112.176 191.065 112.464 191.897 112.72C192.761 112.944 193.769 113.184 194.921 113.44C195.977 113.696 196.921 113.968 197.753 114.256C198.617 114.512 199.337 114.848 199.913 115.264C200.521 115.648 200.985 116.16 201.305 116.8C201.657 117.408 201.833 118.16 201.833 119.056C201.833 120.432 201.513 121.52 200.873 122.32C200.233 123.12 199.481 123.728 198.617 124.144C197.785 124.56 196.937 124.816 196.073 124.912C195.209 125.04 194.569 125.104 194.153 125.104C193.513 125.104 192.841 125.024 192.137 124.864C191.465 124.736 190.825 124.544 190.217 124.288C189.609 124.032 189.065 123.728 188.585 123.376C188.105 123.024 187.753 122.64 187.529 122.224ZM97.1144 147.576V181.512H101.722C102.074 181.512 102.394 181.592 102.682 181.752C103.002 181.912 103.162 182.12 103.162 182.376C103.162 182.792 102.842 183 102.202 183H92.0264C91.5784 183 91.1304 182.968 90.6824 182.904C90.2664 182.808 90.0584 182.632 90.0584 182.376C90.0584 182.088 90.2184 181.896 90.5384 181.8C90.8584 181.704 91.1624 181.656 91.4504 181.656C91.7704 181.656 92.1224 181.656 92.5064 181.656C92.8904 181.624 93.2424 181.544 93.5624 181.416C93.8824 181.256 94.1544 181.032 94.3784 180.744C94.6024 180.424 94.7144 179.992 94.7144 179.448C94.8744 177.144 94.9864 174.712 95.0504 172.152C95.1144 169.56 95.1464 166.968 95.1464 164.376C95.1464 161.464 95.1144 158.472 95.0504 155.4C95.0184 152.296 95.0024 149.368 95.0024 146.616C95.0024 146.04 94.6824 145.656 94.0424 145.464C93.4344 145.272 92.7464 145.144 91.9784 145.08C91.2104 145.016 90.5064 144.936 89.8664 144.84C89.2584 144.744 88.9544 144.52 88.9544 144.168C88.9544 144.04 89.0504 143.944 89.2424 143.88C89.4344 143.784 89.6584 143.72 89.9144 143.688C90.1704 143.624 90.4264 143.592 90.6824 143.592C90.9384 143.592 91.1304 143.592 91.2584 143.592H96.4424C96.8264 143.592 97.1304 143.72 97.3544 143.976C97.5784 144.2 97.9144 144.712 98.3624 145.512C98.7464 146.248 99.2904 147.24 99.9944 148.488C100.73 149.736 101.546 151.144 102.442 152.712C103.338 154.28 104.298 155.96 105.322 157.752C106.378 159.512 107.418 161.304 108.442 163.128C109.498 164.92 110.522 166.68 111.514 168.408C112.538 170.104 113.45 171.672 114.25 173.112C115.082 174.552 115.786 175.8 116.362 176.856C116.97 177.912 117.402 178.68 117.658 179.16V146.952C117.658 146.664 117.514 146.456 117.226 146.328C116.97 146.168 116.634 146.056 116.218 145.992C115.834 145.928 115.418 145.896 114.97 145.896C114.522 145.864 114.138 145.848 113.818 145.848C113.466 145.848 113.082 145.816 112.666 145.752C112.25 145.656 112.042 145.448 112.042 145.128C112.042 144.776 112.266 144.568 112.714 144.504C113.162 144.44 113.53 144.408 113.818 144.408H122.986C124.01 144.408 124.666 144.472 124.954 144.6C125.274 144.696 125.434 144.872 125.434 145.128C125.434 145.48 125.226 145.688 124.81 145.752C124.426 145.816 124.042 145.848 123.658 145.848C123.498 145.848 123.21 145.864 122.794 145.896C122.378 145.896 121.946 145.928 121.498 145.992C121.05 146.056 120.65 146.184 120.298 146.376C119.946 146.536 119.77 146.76 119.77 147.048C119.738 148.904 119.706 150.536 119.674 151.944C119.674 153.32 119.658 154.68 119.626 156.024C119.626 157.368 119.61 158.776 119.578 160.248C119.578 161.688 119.578 163.384 119.578 165.336C119.578 166.392 119.578 167.672 119.578 169.176C119.578 170.68 119.578 172.248 119.578 173.88C119.61 175.512 119.626 177.112 119.626 178.68C119.658 180.248 119.674 181.592 119.674 182.712C119.674 183.064 119.546 183.288 119.29 183.384C119.034 183.48 118.826 183.528 118.666 183.528C118.442 183.528 118.234 183.464 118.042 183.336C117.882 183.24 117.706 183.032 117.514 182.712L97.1144 147.576ZM142.461 168.936C143.005 168.936 143.277 168.648 143.277 168.072C143.277 167.432 143.149 166.744 142.893 166.008C142.637 165.24 142.237 164.536 141.693 163.896C141.149 163.256 140.445 162.728 139.581 162.312C138.749 161.864 137.741 161.64 136.557 161.64C135.341 161.64 134.285 161.864 133.389 162.312C132.525 162.76 131.773 163.352 131.133 164.088C130.525 164.792 130.029 165.592 129.645 166.488C129.293 167.352 129.037 168.232 128.877 169.128L142.461 168.936ZM128.685 170.568C128.653 170.92 128.621 171.272 128.589 171.624C128.589 171.944 128.589 172.248 128.589 172.536C128.589 173.688 128.717 174.824 128.973 175.944C129.261 177.064 129.709 178.072 130.317 178.968C130.957 179.864 131.773 180.6 132.765 181.176C133.789 181.72 135.021 181.992 136.461 181.992C137.773 181.992 138.925 181.768 139.917 181.32C140.909 180.872 141.725 180.28 142.365 179.544C143.037 178.808 143.533 177.96 143.853 177C144.205 176.04 144.381 175.048 144.381 174.024C144.381 173.448 144.653 173.16 145.197 173.16C145.741 173.16 146.013 173.448 146.013 174.024C146.013 175.272 145.773 176.472 145.293 177.624C144.813 178.776 144.141 179.8 143.277 180.696C142.445 181.56 141.453 182.248 140.301 182.76C139.149 183.272 137.901 183.528 136.557 183.528C134.861 183.528 133.373 183.24 132.093 182.664C130.845 182.088 129.805 181.288 128.973 180.264C128.141 179.24 127.501 178.04 127.053 176.664C126.637 175.256 126.429 173.752 126.429 172.152C126.429 170.392 126.685 168.776 127.197 167.304C127.741 165.8 128.477 164.52 129.405 163.464C130.333 162.408 131.421 161.592 132.669 161.016C133.917 160.408 135.261 160.104 136.701 160.104C138.237 160.104 139.549 160.424 140.637 161.064C141.725 161.672 142.605 162.424 143.277 163.32C143.981 164.184 144.493 165.096 144.813 166.056C145.165 166.984 145.341 167.768 145.341 168.408C145.341 168.92 145.197 169.384 144.909 169.8C144.653 170.216 144.237 170.44 143.661 170.472C142.829 170.504 141.805 170.52 140.589 170.52C139.405 170.52 138.173 170.52 136.893 170.52C136.509 170.52 135.949 170.52 135.213 170.52C134.477 170.52 133.693 170.536 132.861 170.568C132.061 170.568 131.277 170.568 130.509 170.568C129.741 170.568 129.133 170.568 128.685 170.568ZM150.802 181.224C150.834 181.48 150.85 181.752 150.85 182.04C150.85 182.328 150.85 182.568 150.85 182.76C150.85 183.24 150.802 183.64 150.706 183.96C150.61 184.28 150.386 184.44 150.034 184.44C149.81 184.44 149.618 184.36 149.458 184.2C149.33 184.04 149.266 183.736 149.266 183.288C149.266 183.032 149.282 182.6 149.314 181.992C149.346 181.384 149.362 180.856 149.362 180.408C149.362 179.8 149.33 179.112 149.266 178.344C149.202 177.576 149.17 176.904 149.17 176.328C149.17 175.304 149.394 174.792 149.842 174.792C150.322 174.792 150.61 175.352 150.706 176.472C150.77 177.592 150.898 178.456 151.09 179.064C151.282 179.672 151.682 180.248 152.29 180.792C153.026 181.464 153.842 181.944 154.738 182.232C155.666 182.488 156.626 182.616 157.618 182.616C158.226 182.616 158.866 182.552 159.538 182.424C160.21 182.264 160.818 182.024 161.362 181.704C161.906 181.352 162.354 180.904 162.706 180.36C163.09 179.816 163.282 179.128 163.282 178.296C163.282 177.56 163.122 176.968 162.802 176.52C162.482 176.04 162.018 175.64 161.41 175.32C160.802 174.968 160.05 174.68 159.154 174.456C158.258 174.2 157.234 173.944 156.082 173.688C154.066 173.24 152.498 172.552 151.378 171.624C150.258 170.696 149.698 169.32 149.698 167.496C149.698 166.344 149.906 165.368 150.322 164.568C150.77 163.768 151.346 163.112 152.05 162.6C152.786 162.056 153.602 161.672 154.498 161.448C155.426 161.192 156.37 161.064 157.33 161.064C158.258 161.064 159.058 161.16 159.73 161.352C160.402 161.544 160.978 161.8 161.458 162.12C161.938 162.44 162.322 162.792 162.61 163.176C162.898 163.528 163.138 163.864 163.33 164.184C163.298 163.768 163.266 163.336 163.234 162.888C163.234 162.44 163.234 162.088 163.234 161.832C163.234 161.192 163.298 160.76 163.426 160.536C163.554 160.312 163.746 160.2 164.002 160.2C164.29 160.2 164.498 160.328 164.626 160.584C164.786 160.808 164.866 161.096 164.866 161.448C164.866 163.368 164.834 164.968 164.77 166.248C164.738 167.496 164.722 168.296 164.722 168.648C164.722 168.936 164.674 169.224 164.578 169.512C164.482 169.768 164.29 169.896 164.002 169.896C163.714 169.896 163.506 169.768 163.378 169.512C163.282 169.224 163.218 168.952 163.186 168.696C163.154 168.44 163.122 168.152 163.09 167.832C163.09 167.48 163.01 167.064 162.85 166.584C162.69 166.008 162.466 165.48 162.178 165C161.89 164.488 161.522 164.056 161.074 163.704C160.626 163.352 160.082 163.08 159.442 162.888C158.802 162.664 158.034 162.552 157.138 162.552C156.338 162.552 155.586 162.648 154.882 162.84C154.178 163 153.57 163.288 153.058 163.704C152.546 164.088 152.146 164.6 151.858 165.24C151.57 165.848 151.426 166.6 151.426 167.496C151.426 168.328 151.554 169.016 151.81 169.56C152.098 170.072 152.514 170.504 153.058 170.856C153.634 171.176 154.338 171.464 155.17 171.72C156.034 171.944 157.042 172.184 158.194 172.44C159.25 172.696 160.194 172.968 161.026 173.256C161.89 173.512 162.61 173.848 163.186 174.264C163.794 174.648 164.258 175.16 164.578 175.8C164.93 176.408 165.106 177.16 165.106 178.056C165.106 179.432 164.786 180.52 164.146 181.32C163.506 182.12 162.754 182.728 161.89 183.144C161.058 183.56 160.21 183.816 159.346 183.912C158.482 184.04 157.842 184.104 157.426 184.104C156.786 184.104 156.114 184.024 155.41 183.864C154.738 183.736 154.098 183.544 153.49 183.288C152.882 183.032 152.338 182.728 151.858 182.376C151.378 182.024 151.026 181.64 150.802 181.224ZM171.303 162.648C170.695 162.648 170.007 162.664 169.239 162.696C168.471 162.728 167.799 162.744 167.223 162.744C167.031 162.744 166.839 162.696 166.647 162.6C166.423 162.504 166.311 162.328 166.311 162.072C166.311 161.912 166.391 161.784 166.551 161.688C166.711 161.56 167.015 161.464 167.463 161.4L169.911 161.112C170.551 161.048 170.935 160.856 171.063 160.536C171.191 160.216 171.255 159.704 171.255 159C171.255 158.328 171.271 157.608 171.303 156.84C171.335 156.04 171.431 155.32 171.591 154.68C171.751 154.04 171.895 153.656 172.023 153.528C172.151 153.4 172.295 153.336 172.455 153.336C172.711 153.336 172.903 153.448 173.031 153.672C173.159 153.864 173.223 154.44 173.223 155.4V161.016C173.511 161.016 174.039 161.016 174.807 161.016C175.607 160.984 176.439 160.952 177.303 160.92C178.167 160.888 178.967 160.872 179.703 160.872C180.471 160.84 180.967 160.824 181.191 160.824C182.023 160.824 182.439 161.032 182.439 161.448C182.439 161.608 182.375 161.768 182.247 161.928C182.119 162.056 181.911 162.136 181.623 162.168C180.215 162.296 178.791 162.376 177.351 162.408C175.911 162.44 174.535 162.488 173.223 162.552V175.704C173.223 176.376 173.239 177.096 173.271 177.864C173.303 178.6 173.431 179.288 173.655 179.928C173.911 180.536 174.279 181.048 174.759 181.464C175.271 181.88 175.991 182.088 176.919 182.088C177.623 182.088 178.247 181.96 178.791 181.704C179.335 181.448 179.783 181.128 180.135 180.744C180.519 180.36 180.823 179.944 181.047 179.496C181.303 179.016 181.495 178.552 181.623 178.104C181.783 177.592 181.911 177.192 182.007 176.904C182.103 176.584 182.327 176.424 182.679 176.424C183.031 176.424 183.239 176.552 183.303 176.808C183.367 177.032 183.399 177.224 183.399 177.384C183.399 177.832 183.271 178.408 183.015 179.112C182.759 179.816 182.343 180.504 181.767 181.176C181.223 181.816 180.519 182.376 179.655 182.856C178.791 183.304 177.767 183.528 176.583 183.528C174.759 183.528 173.415 182.872 172.551 181.56C172.231 181.08 171.975 180.568 171.783 180.024C171.623 179.448 171.495 178.872 171.399 178.296C171.303 177.688 171.239 177.112 171.207 176.568C171.207 176.024 171.207 175.528 171.207 175.08L171.303 162.648Z"/>
</svg></svg>