<?xml version="1.0" standalone="no"?>
<svg xmlns="http://www.w3.org/2000/svg" width="2000" height="2000" viewBox="0 0 2000 2000"><defs><clipPath id="clip-path-dot-color"><circle cx="132" cy="690" r="31" transform="rotate(0,132,690)"/><circle cx="132" cy="752" r="31" transform="rotate(0,132,752)"/><circle cx="132" cy="814" r="31" transform="rotate(0,132,814)"/><circle cx="132" cy="938" r="31" transform="rotate(0,132,938)"/><circle cx="132" cy="1000" r="31" transform="rotate(0,132,1000)"/><circle cx="132" cy="1124" r="31" transform="rotate(0,132,1124)"/><circle cx="132" cy="1248" r="31" transform="rotate(0,132,1248)"/><circle cx="132" cy="1310" r="31" transform="rotate(0,132,1310)"/><circle cx="194" cy="814" r="31" transform="rotate(0,194,814)"/><circle cx="194" cy="938" r="31" transform="rotate(0,194,938)"/><circle cx="194" cy="1062" r="31" transform="rotate(0,194,1062)"/><circle cx="194" cy="1124" r="31" transform="rotate(0,194,1124)"/><circle cx="194" cy="1186" r="31" transform="rotate(0,194,1186)"/><circle cx="194" cy="1372" r="31" transform="rotate(0,194,1372)"/><circle cx="256" cy="628" r="31" transform="rotate(0,256,628)"/><circle cx="256" cy="814" r="31" transform="rotate(0,256,814)"/><circle cx="256" cy="938" r="31" transform="rotate(0,256,938)"/><circle cx="256" cy="1000" r="31" transform="rotate(0,256,1000)"/><circle cx="256" cy="1062" r="31" transform="rotate(0,256,1062)"/><circle cx="256" cy="1124" r="31" transform="rotate(0,256,1124)"/><circle cx="256" cy="1186" r="31" transform="rotate(0,256,1186)"/><circle cx="256" cy="1310" r="31" transform="rotate(0,256,1310)"/><circle cx="256" cy="1372" r="31" transform="rotate(0,256,1372)"/><circle cx="318" cy="876" r="31" transform="rotate(0,318,876)"/><circle cx="318" cy="1000" r="31" transform="rotate(0,318,1000)"/><circle cx="318" cy="1124" r="31" transform="rotate(0,318,1124)"/><circle cx="318" cy="1248" r="31" transform="rotate(0,318,1248)"/><circle cx="318" cy="1310" r="31" transform="rotate(0,318,1310)"/><circle cx="380" cy="628" r="31" transform="rotate(0,380,628)"/><circle cx="380" cy="690" r="31" transform="rotate(0,380,690)"/><circle cx="380" cy="752" r="31" transform="rotate(0,380,752)"/><circle cx="380" cy="814" r="31" transform="rotate(0,380,814)"/><circle cx="380" cy="1000" r="31" transform="rotate(0,380,1000)"/><circle cx="442" cy="628" r="31" transform="rotate(0,442,628)"/><circle cx="442" cy="814" r="31" transform="rotate(0,442,814)"/><circle cx="442" cy="876" r="31" transform="rotate(0,442,876)"/><circle cx="442" cy="938" r="31" transform="rotate(0,442,938)"/><circle cx="442" cy="1000" r="31" transform="rotate(0,442,1000)"/><circle cx="442" cy="1248" r="31" transform="rotate(0,442,1248)"/><circle cx="442" cy="1310" r="31" transform="rotate(0,442,1310)"/><circle cx="442" cy="1372" r="31" transform="rotate(0,442,1372)"/><circle cx="504" cy="628" r="31" transform="rotate(0,504,628)"/><circle cx="504" cy="752" r="31" transform="rotate(0,504,752)"/><circle cx="504" cy="876" r="31" transform="rotate(0,504,876)"/><circle cx="504" cy="1000" r="31" transform="rotate(0,504,1000)"/><circle cx="504" cy="1124" r="31" transform="rotate(0,504,1124)"/><circle cx="504" cy="1248" r="31" transform="rotate(0,504,1248)"/><circle cx="504" cy="1372" r="31" transform="rotate(0,504,1372)"/><circle cx="566" cy="814" r="31" transform="rotate(0,566,814)"/><circle cx="566" cy="1186" r="31" transform="rotate(0,566,1186)"/><circle cx="566" cy="1248" r="31" transform="rotate(0,566,1248)"/><circle cx="566" cy="1310" r="31" transform="rotate(0,566,1310)"/><circle cx="628" cy="194" r="31" transform="rotate(0,628,194)"/><circle cx="628" cy="380" r="31" transform="rotate(0,628,380)"/><circle cx="628" cy="504" r="31" transform="rotate(0,628,504)"/><circle cx="628" cy="628" r="31" transform="rotate(0,628,628)"/><circle cx="628" cy="690" r="31" transform="rotate(0,628,690)"/><circle cx="628" cy="752" r="31" transform="rotate(0,628,752)"/><circle cx="628" cy="814" r="31" transform="rotate(0,628,814)"/><circle cx="628" cy="1248" r="31" transform="rotate(0,628,1248)"/><circle cx="628" cy="1310" r="31" transform="rotate(0,628,1310)"/><circle cx="628" cy="1372" r="31" transform="rotate(0,628,1372)"/><circle cx="628" cy="1434" r="31" transform="rotate(0,628,1434)"/><circle cx="628" cy="1558" r="31" transform="rotate(0,628,1558)"/><circle cx="628" cy="1620" r="31" transform="rotate(0,628,1620)"/><circle cx="628" cy="1744" r="31" transform="rotate(0,628,1744)"/><circle cx="690" cy="194" r="31" transform="rotate(0,690,194)"/><circle cx="690" cy="256" r="31" transform="rotate(0,690,256)"/><circle cx="690" cy="380" r="31" transform="rotate(0,690,380)"/><circle cx="690" cy="442" r="31" transform="rotate(0,690,442)"/><circle cx="690" cy="690" r="31" transform="rotate(0,690,690)"/><circle cx="690" cy="1186" r="31" transform="rotate(0,690,1186)"/><circle cx="690" cy="1310" r="31" transform="rotate(0,690,1310)"/><circle cx="690" cy="1372" r="31" transform="rotate(0,690,1372)"/><circle cx="690" cy="1434" r="31" transform="rotate(0,690,1434)"/><circle cx="690" cy="1496" r="31" transform="rotate(0,690,1496)"/><circle cx="690" cy="1558" r="31" transform="rotate(0,690,1558)"/><circle cx="690" cy="1620" r="31" transform="rotate(0,690,1620)"/><circle cx="690" cy="1682" r="31" transform="rotate(0,690,1682)"/><circle cx="690" cy="1806" r="31" transform="rotate(0,690,1806)"/><circle cx="690" cy="1868" r="31" transform="rotate(0,690,1868)"/><circle cx="752" cy="132" r="31" transform="rotate(0,752,132)"/><circle cx="752" cy="318" r="31" transform="rotate(0,752,318)"/><circle cx="752" cy="504" r="31" transform="rotate(0,752,504)"/><circle cx="752" cy="814" r="31" transform="rotate(0,752,814)"/><circle cx="752" cy="876" r="31" transform="rotate(0,752,876)"/><circle cx="752" cy="1124" r="31" transform="rotate(0,752,1124)"/><circle cx="752" cy="1186" r="31" transform="rotate(0,752,1186)"/><circle cx="752" cy="1372" r="31" transform="rotate(0,752,1372)"/><circle cx="752" cy="1434" r="31" transform="rotate(0,752,1434)"/><circle cx="752" cy="1868" r="31" transform="rotate(0,752,1868)"/><circle cx="814" cy="132" r="31" transform="rotate(0,814,132)"/><circle cx="814" cy="194" r="31" transform="rotate(0,814,194)"/><circle cx="814" cy="256" r="31" transform="rotate(0,814,256)"/><circle cx="814" cy="318" r="31" transform="rotate(0,814,318)"/><circle cx="814" cy="628" r="31" transform="rotate(0,814,628)"/><circle cx="814" cy="690" r="31" transform="rotate(0,814,690)"/><circle cx="814" cy="752" r="31" transform="rotate(0,814,752)"/><circle cx="814" cy="876" r="31" transform="rotate(0,814,876)"/><circle cx="814" cy="1124" r="31" transform="rotate(0,814,1124)"/><circle cx="814" cy="1186" r="31" transform="rotate(0,814,1186)"/><circle cx="814" cy="1248" r="31" transform="rotate(0,814,1248)"/><circle cx="814" cy="1434" r="31" transform="rotate(0,814,1434)"/><circle cx="814" cy="1558" r="31" transform="rotate(0,814,1558)"/><circle cx="814" cy="1620" r="31" transform="rotate(0,814,1620)"/><circle cx="814" cy="1806" r="31" transform="rotate(0,814,1806)"/><circle cx="814" cy="1868" r="31" transform="rotate(0,814,1868)"/><circle cx="876" cy="194" r="31" transform="rotate(0,876,194)"/><circle cx="876" cy="380" r="31" transform="rotate(0,876,380)"/><circle cx="876" cy="504" r="31" transform="rotate(0,876,504)"/><circle cx="876" cy="566" r="31" transform="rotate(0,876,566)"/><circle cx="876" cy="628" r="31" transform="rotate(0,876,628)"/><circle cx="876" cy="1124" r="31" transform="rotate(0,876,1124)"/><circle cx="876" cy="1186" r="31" transform="rotate(0,876,1186)"/><circle cx="876" cy="1248" r="31" transform="rotate(0,876,1248)"/><circle cx="876" cy="1558" r="31" transform="rotate(0,876,1558)"/><circle cx="876" cy="1868" r="31" transform="rotate(0,876,1868)"/><circle cx="938" cy="256" r="31" transform="rotate(0,938,256)"/><circle cx="938" cy="442" r="31" transform="rotate(0,938,442)"/><circle cx="938" cy="566" r="31" transform="rotate(0,938,566)"/><circle cx="938" cy="628" r="31" transform="rotate(0,938,628)"/><circle cx="938" cy="690" r="31" transform="rotate(0,938,690)"/><circle cx="938" cy="814" r="31" transform="rotate(0,938,814)"/><circle cx="938" cy="1186" r="31" transform="rotate(0,938,1186)"/><circle cx="938" cy="1248" r="31" transform="rotate(0,938,1248)"/><circle cx="938" cy="1496" r="31" transform="rotate(0,938,1496)"/><circle cx="938" cy="1620" r="31" transform="rotate(0,938,1620)"/><circle cx="938" cy="1744" r="31" transform="rotate(0,938,1744)"/><circle cx="1000" cy="194" r="31" transform="rotate(0,1000,194)"/><circle cx="1000" cy="318" r="31" transform="rotate(0,1000,318)"/><circle cx="1000" cy="380" r="31" transform="rotate(0,1000,380)"/><circle cx="1000" cy="442" r="31" transform="rotate(0,1000,442)"/><circle cx="1000" cy="504" r="31" transform="rotate(0,1000,504)"/><circle cx="1000" cy="566" r="31" transform="rotate(0,1000,566)"/><circle cx="1000" cy="752" r="31" transform="rotate(0,1000,752)"/><circle cx="1000" cy="814" r="31" transform="rotate(0,1000,814)"/><circle cx="1000" cy="1124" r="31" transform="rotate(0,1000,1124)"/><circle cx="1000" cy="1248" r="31" transform="rotate(0,1000,1248)"/><circle cx="1000" cy="1372" r="31" transform="rotate(0,1000,1372)"/><circle cx="1000" cy="1496" r="31" transform="rotate(0,1000,1496)"/><circle cx="1000" cy="1620" r="31" transform="rotate(0,1000,1620)"/><circle cx="1000" cy="1868" r="31" transform="rotate(0,1000,1868)"/><circle cx="1062" cy="380" r="31" transform="rotate(0,1062,380)"/><circle cx="1062" cy="566" r="31" transform="rotate(0,1062,566)"/><circle cx="1062" cy="690" r="31" transform="rotate(0,1062,690)"/><circle cx="1062" cy="752" r="31" transform="rotate(0,1062,752)"/><circle cx="1062" cy="814" r="31" transform="rotate(0,1062,814)"/><circle cx="1062" cy="876" r="31" transform="rotate(0,1062,876)"/><circle cx="1062" cy="1434" r="31" transform="rotate(0,1062,1434)"/><circle cx="1062" cy="1558" r="31" transform="rotate(0,1062,1558)"/><circle cx="1062" cy="1682" r="31" transform="rotate(0,1062,1682)"/><circle cx="1062" cy="1806" r="31" transform="rotate(0,1062,1806)"/><circle cx="1062" cy="1868" r="31" transform="rotate(0,1062,1868)"/><circle cx="1124" cy="194" r="31" transform="rotate(0,1124,194)"/><circle cx="1124" cy="256" r="31" transform="rotate(0,1124,256)"/><circle cx="1124" cy="380" r="31" transform="rotate(0,1124,380)"/><circle cx="1124" cy="504" r="31" transform="rotate(0,1124,504)"/><circle cx="1124" cy="566" r="31" transform="rotate(0,1124,566)"/><circle cx="1124" cy="628" r="31" transform="rotate(0,1124,628)"/><circle cx="1124" cy="752" r="31" transform="rotate(0,1124,752)"/><circle cx="1124" cy="814" r="31" transform="rotate(0,1124,814)"/><circle cx="1124" cy="876" r="31" transform="rotate(0,1124,876)"/><circle cx="1124" cy="1124" r="31" transform="rotate(0,1124,1124)"/><circle cx="1124" cy="1310" r="31" transform="rotate(0,1124,1310)"/><circle cx="1124" cy="1372" r="31" transform="rotate(0,1124,1372)"/><circle cx="1124" cy="1434" r="31" transform="rotate(0,1124,1434)"/><circle cx="1124" cy="1558" r="31" transform="rotate(0,1124,1558)"/><circle cx="1124" cy="1620" r="31" transform="rotate(0,1124,1620)"/><circle cx="1124" cy="1806" r="31" transform="rotate(0,1124,1806)"/><circle cx="1186" cy="132" r="31" transform="rotate(0,1186,132)"/><circle cx="1186" cy="256" r="31" transform="rotate(0,1186,256)"/><circle cx="1186" cy="318" r="31" transform="rotate(0,1186,318)"/><circle cx="1186" cy="442" r="31" transform="rotate(0,1186,442)"/><circle cx="1186" cy="566" r="31" transform="rotate(0,1186,566)"/><circle cx="1186" cy="1186" r="31" transform="rotate(0,1186,1186)"/><circle cx="1186" cy="1248" r="31" transform="rotate(0,1186,1248)"/><circle cx="1186" cy="1558" r="31" transform="rotate(0,1186,1558)"/><circle cx="1186" cy="1620" r="31" transform="rotate(0,1186,1620)"/><circle cx="1186" cy="1682" r="31" transform="rotate(0,1186,1682)"/><circle cx="1186" cy="1744" r="31" transform="rotate(0,1186,1744)"/><circle cx="1186" cy="1868" r="31" transform="rotate(0,1186,1868)"/><circle cx="1248" cy="380" r="31" transform="rotate(0,1248,380)"/><circle cx="1248" cy="442" r="31" transform="rotate(0,1248,442)"/><circle cx="1248" cy="504" r="31" transform="rotate(0,1248,504)"/><circle cx="1248" cy="566" r="31" transform="rotate(0,1248,566)"/><circle cx="1248" cy="628" r="31" transform="rotate(0,1248,628)"/><circle cx="1248" cy="690" r="31" transform="rotate(0,1248,690)"/><circle cx="1248" cy="1248" r="31" transform="rotate(0,1248,1248)"/><circle cx="1248" cy="1372" r="31" transform="rotate(0,1248,1372)"/><circle cx="1248" cy="1620" r="31" transform="rotate(0,1248,1620)"/><circle cx="1248" cy="1682" r="31" transform="rotate(0,1248,1682)"/><circle cx="1248" cy="1868" r="31" transform="rotate(0,1248,1868)"/><circle cx="1310" cy="256" r="31" transform="rotate(0,1310,256)"/><circle cx="1310" cy="318" r="31" transform="rotate(0,1310,318)"/><circle cx="1310" cy="380" r="31" transform="rotate(0,1310,380)"/><circle cx="1310" cy="566" r="31" transform="rotate(0,1310,566)"/><circle cx="1310" cy="752" r="31" transform="rotate(0,1310,752)"/><circle cx="1310" cy="1124" r="31" transform="rotate(0,1310,1124)"/><circle cx="1310" cy="1186" r="31" transform="rotate(0,1310,1186)"/><circle cx="1310" cy="1558" r="31" transform="rotate(0,1310,1558)"/><circle cx="1310" cy="1682" r="31" transform="rotate(0,1310,1682)"/><circle cx="1310" cy="1806" r="31" transform="rotate(0,1310,1806)"/><circle cx="1372" cy="132" r="31" transform="rotate(0,1372,132)"/><circle cx="1372" cy="194" r="31" transform="rotate(0,1372,194)"/><circle cx="1372" cy="380" r="31" transform="rotate(0,1372,380)"/><circle cx="1372" cy="504" r="31" transform="rotate(0,1372,504)"/><circle cx="1372" cy="566" r="31" transform="rotate(0,1372,566)"/><circle cx="1372" cy="628" r="31" transform="rotate(0,1372,628)"/><circle cx="1372" cy="814" r="31" transform="rotate(0,1372,814)"/><circle cx="1372" cy="876" r="31" transform="rotate(0,1372,876)"/><circle cx="1372" cy="1186" r="31" transform="rotate(0,1372,1186)"/><circle cx="1372" cy="1372" r="31" transform="rotate(0,1372,1372)"/><circle cx="1372" cy="1434" r="31" transform="rotate(0,1372,1434)"/><circle cx="1372" cy="1496" r="31" transform="rotate(0,1372,1496)"/><circle cx="1372" cy="1558" r="31" transform="rotate(0,1372,1558)"/><circle cx="1372" cy="1620" r="31" transform="rotate(0,1372,1620)"/><circle cx="1372" cy="1868" r="31" transform="rotate(0,1372,1868)"/><circle cx="1434" cy="628" r="31" transform="rotate(0,1434,628)"/><circle cx="1434" cy="814" r="31" transform="rotate(0,1434,814)"/><circle cx="1434" cy="1248" r="31" transform="rotate(0,1434,1248)"/><circle cx="1434" cy="1372" r="31" transform="rotate(0,1434,1372)"/><circle cx="1434" cy="1620" r="31" transform="rotate(0,1434,1620)"/><circle cx="1434" cy="1744" r="31" transform="rotate(0,1434,1744)"/><circle cx="1434" cy="1806" r="31" transform="rotate(0,1434,1806)"/><circle cx="1496" cy="690" r="31" transform="rotate(0,1496,690)"/><circle cx="1496" cy="752" r="31" transform="rotate(0,1496,752)"/><circle cx="1496" cy="814" r="31" transform="rotate(0,1496,814)"/><circle cx="1496" cy="876" r="31" transform="rotate(0,1496,876)"/><circle cx="1496" cy="938" r="31" transform="rotate(0,1496,938)"/><circle cx="1496" cy="1000" r="31" transform="rotate(0,1496,1000)"/><circle cx="1496" cy="1062" r="31" transform="rotate(0,1496,1062)"/><circle cx="1496" cy="1186" r="31" transform="rotate(0,1496,1186)"/><circle cx="1496" cy="1310" r="31" transform="rotate(0,1496,1310)"/><circle cx="1496" cy="1372" r="31" transform="rotate(0,1496,1372)"/><circle cx="1496" cy="1496" r="31" transform="rotate(0,1496,1496)"/><circle cx="1496" cy="1620" r="31" transform="rotate(0,1496,1620)"/><circle cx="1496" cy="1868" r="31" transform="rotate(0,1496,1868)"/><circle cx="1558" cy="690" r="31" transform="rotate(0,1558,690)"/><circle cx="1558" cy="752" r="31" transform="rotate(0,1558,752)"/><circle cx="1558" cy="938" r="31" transform="rotate(0,1558,938)"/><circle cx="1558" cy="1186" r="31" transform="rotate(0,1558,1186)"/><circle cx="1558" cy="1248" r="31" transform="rotate(0,1558,1248)"/><circle cx="1558" cy="1310" r="31" transform="rotate(0,1558,1310)"/><circle cx="1558" cy="1372" r="31" transform="rotate(0,1558,1372)"/><circle cx="1558" cy="1620" r="31" transform="rotate(0,1558,1620)"/><circle cx="1558" cy="1682" r="31" transform="rotate(0,1558,1682)"/><circle cx="1620" cy="628" r="31" transform="rotate(0,1620,628)"/><circle cx="1620" cy="690" r="31" transform="rotate(0,1620,690)"/><circle cx="1620" cy="752" r="31" transform="rotate(0,1620,752)"/><circle cx="1620" cy="814" r="31" transform="rotate(0,1620,814)"/><circle cx="1620" cy="876" r="31" transform="rotate(0,1620,876)"/><circle cx="1620" cy="938" r="31" transform="rotate(0,1620,938)"/><circle cx="1620" cy="1000" r="31" transform="rotate(0,1620,1000)"/><circle cx="1620" cy="1062" r="31" transform="rotate(0,1620,1062)"/><circle cx="1620" cy="1248" r="31" transform="rotate(0,1620,1248)"/><circle cx="1620" cy="1310" r="31" transform="rotate(0,1620,1310)"/><circle cx="1620" cy="1372" r="31" transform="rotate(0,1620,1372)"/><circle cx="1620" cy="1434" r="31" transform="rotate(0,1620,1434)"/><circle cx="1620" cy="1496" r="31" transform="rotate(0,1620,1496)"/><circle cx="1620" cy="1558" r="31" transform="rotate(0,1620,1558)"/><circle cx="1620" cy="1620" r="31" transform="rotate(0,1620,1620)"/><circle cx="1620" cy="1806" r="31" transform="rotate(0,1620,1806)"/><circle cx="1620" cy="1868" r="31" transform="rotate(0,1620,1868)"/><circle cx="1682" cy="752" r="31" transform="rotate(0,1682,752)"/><circle cx="1682" cy="876" r="31" transform="rotate(0,1682,876)"/><circle cx="1682" cy="1124" r="31" transform="rotate(0,1682,1124)"/><circle cx="1682" cy="1186" r="31" transform="rotate(0,1682,1186)"/><circle cx="1682" cy="1558" r="31" transform="rotate(0,1682,1558)"/><circle cx="1682" cy="1682" r="31" transform="rotate(0,1682,1682)"/><circle cx="1682" cy="1744" r="31" transform="rotate(0,1682,1744)"/><circle cx="1682" cy="1806" r="31" transform="rotate(0,1682,1806)"/><circle cx="1744" cy="876" r="31" transform="rotate(0,1744,876)"/><circle cx="1744" cy="938" r="31" transform="rotate(0,1744,938)"/><circle cx="1744" cy="1000" r="31" transform="rotate(0,1744,1000)"/><circle cx="1744" cy="1124" r="31" transform="rotate(0,1744,1124)"/><circle cx="1744" cy="1186" r="31" transform="rotate(0,1744,1186)"/><circle cx="1744" cy="1310" r="31" transform="rotate(0,1744,1310)"/><circle cx="1744" cy="1372" r="31" transform="rotate(0,1744,1372)"/><circle cx="1744" cy="1434" r="31" transform="rotate(0,1744,1434)"/><circle cx="1744" cy="1806" r="31" transform="rotate(0,1744,1806)"/><circle cx="1744" cy="1868" r="31" transform="rotate(0,1744,1868)"/><circle cx="1806" cy="628" r="31" transform="rotate(0,1806,628)"/><circle cx="1806" cy="690" r="31" transform="rotate(0,1806,690)"/><circle cx="1806" cy="814" r="31" transform="rotate(0,1806,814)"/><circle cx="1806" cy="1000" r="31" transform="rotate(0,1806,1000)"/><circle cx="1806" cy="1186" r="31" transform="rotate(0,1806,1186)"/><circle cx="1806" cy="1248" r="31" transform="rotate(0,1806,1248)"/><circle cx="1806" cy="1310" r="31" transform="rotate(0,1806,1310)"/><circle cx="1806" cy="1558" r="31" transform="rotate(0,1806,1558)"/><circle cx="1806" cy="1682" r="31" transform="rotate(0,1806,1682)"/><circle cx="1806" cy="1806" r="31" transform="rotate(0,1806,1806)"/><circle cx="1806" cy="1868" r="31" transform="rotate(0,1806,1868)"/><circle cx="1868" cy="690" r="31" transform="rotate(0,1868,690)"/><circle cx="1868" cy="814" r="31" transform="rotate(0,1868,814)"/><circle cx="1868" cy="1000" r="31" transform="rotate(0,1868,1000)"/><circle cx="1868" cy="1062" r="31" transform="rotate(0,1868,1062)"/><circle cx="1868" cy="1186" r="31" transform="rotate(0,1868,1186)"/><circle cx="1868" cy="1372" r="31" transform="rotate(0,1868,1372)"/><circle cx="1868" cy="1496" r="31" transform="rotate(0,1868,1496)"/><circle cx="1868" cy="1620" r="31" transform="rotate(0,1868,1620)"/><circle cx="1868" cy="1682" r="31" transform="rotate(0,1868,1682)"/><circle cx="1868" cy="1744" r="31" transform="rotate(0,1868,1744)"/><circle cx="1868" cy="1806" r="31" transform="rotate(0,1868,1806)"/></clipPath><clipPath id="clip-path-corners-square-color-0-0"><circle cx="132" cy="132" r="31" transform="rotate(0,132,132)"/><circle cx="132" cy="194" r="31" transform="rotate(0,132,194)"/><circle cx="132" cy="256" r="31" transform="rotate(0,132,256)"/><circle cx="132" cy="318" r="31" transform="rotate(0,132,318)"/><circle cx="132" cy="380" r="31" transform="rotate(0,132,380)"/><circle cx="132" cy="442" r="31" transform="rotate(0,132,442)"/><circle cx="132" cy="504" r="31" transform="rotate(0,132,504)"/><circle cx="194" cy="132" r="31" transform="rotate(0,194,132)"/><circle cx="194" cy="504" r="31" transform="rotate(0,194,504)"/><circle cx="256" cy="132" r="31" transform="rotate(0,256,132)"/><circle cx="256" cy="504" r="31" transform="rotate(0,256,504)"/><circle cx="318" cy="132" r="31" transform="rotate(0,318,132)"/><circle cx="318" cy="504" r="31" transform="rotate(0,318,504)"/><circle cx="380" cy="132" r="31" transform="rotate(0,380,132)"/><circle cx="380" cy="504" r="31" transform="rotate(0,380,504)"/><circle cx="442" cy="132" r="31" transform="rotate(0,442,132)"/><circle cx="442" cy="504" r="31" transform="rotate(0,442,504)"/><circle cx="504" cy="132" r="31" transform="rotate(0,504,132)"/><circle cx="504" cy="194" r="31" transform="rotate(0,504,194)"/><circle cx="504" cy="256" r="31" transform="rotate(0,504,256)"/><circle cx="504" cy="318" r="31" transform="rotate(0,504,318)"/><circle cx="504" cy="380" r="31" transform="rotate(0,504,380)"/><circle cx="504" cy="442" r="31" transform="rotate(0,504,442)"/><circle cx="504" cy="504" r="31" transform="rotate(0,504,504)"/></clipPath><clipPath id="clip-path-corners-dot-color-0-0"><rect x="225" y="225" width="186" height="186" transform="rotate(0,318,318)"/></clipPath><clipPath id="clip-path-corners-square-color-1-0"><circle cx="1496" cy="132" r="31" transform="rotate(0,1496,132)"/><circle cx="1496" cy="194" r="31" transform="rotate(0,1496,194)"/><circle cx="1496" cy="256" r="31" transform="rotate(0,1496,256)"/><circle cx="1496" cy="318" r="31" transform="rotate(0,1496,318)"/><circle cx="1496" cy="380" r="31" transform="rotate(0,1496,380)"/><circle cx="1496" cy="442" r="31" transform="rotate(0,1496,442)"/><circle cx="1496" cy="504" r="31" transform="rotate(0,1496,504)"/><circle cx="1558" cy="132" r="31" transform="rotate(0,1558,132)"/><circle cx="1558" cy="504" r="31" transform="rotate(0,1558,504)"/><circle cx="1620" cy="132" r="31" transform="rotate(0,1620,132)"/><circle cx="1620" cy="504" r="31" transform="rotate(0,1620,504)"/><circle cx="1682" cy="132" r="31" transform="rotate(0,1682,132)"/><circle cx="1682" cy="504" r="31" transform="rotate(0,1682,504)"/><circle cx="1744" cy="132" r="31" transform="rotate(0,1744,132)"/><circle cx="1744" cy="504" r="31" transform="rotate(0,1744,504)"/><circle cx="1806" cy="132" r="31" transform="rotate(0,1806,132)"/><circle cx="1806" cy="504" r="31" transform="rotate(0,1806,504)"/><circle cx="1868" cy="132" r="31" transform="rotate(0,1868,132)"/><circle cx="1868" cy="194" r="31" transform="rotate(0,1868,194)"/><circle cx="1868" cy="256" r="31" transform="rotate(0,1868,256)"/><circle cx="1868" cy="318" r="31" transform="rotate(0,1868,318)"/><circle cx="1868" cy="380" r="31" transform="rotate(0,1868,380)"/><circle cx="1868" cy="442" r="31" transform="rotate(0,1868,442)"/><circle cx="1868" cy="504" r="31" transform="rotate(0,1868,504)"/></clipPath><clipPath id="clip-path-corners-dot-color-1-0"><rect x="1589" y="225" width="186" height="186" transform="rotate(90,1682,318)"/></clipPath><clipPath id="clip-path-corners-square-color-0-1"><circle cx="132" cy="1496" r="31" transform="rotate(0,132,1496)"/><circle cx="132" cy="1558" r="31" transform="rotate(0,132,1558)"/><circle cx="132" cy="1620" r="31" transform="rotate(0,132,1620)"/><circle cx="132" cy="1682" r="31" transform="rotate(0,132,1682)"/><circle cx="132" cy="1744" r="31" transform="rotate(0,132,1744)"/><circle cx="132" cy="1806" r="31" transform="rotate(0,132,1806)"/><circle cx="132" cy="1868" r="31" transform="rotate(0,132,1868)"/><circle cx="194" cy="1496" r="31" transform="rotate(0,194,1496)"/><circle cx="194" cy="1868" r="31" transform="rotate(0,194,1868)"/><circle cx="256" cy="1496" r="31" transform="rotate(0,256,1496)"/><circle cx="256" cy="1868" r="31" transform="rotate(0,256,1868)"/><circle cx="318" cy="1496" r="31" transform="rotate(0,318,1496)"/><circle cx="318" cy="1868" r="31" transform="rotate(0,318,1868)"/><circle cx="380" cy="1496" r="31" transform="rotate(0,380,1496)"/><circle cx="380" cy="1868" r="31" transform="rotate(0,380,1868)"/><circle cx="442" cy="1496" r="31" transform="rotate(0,442,1496)"/><circle cx="442" cy="1868" r="31" transform="rotate(0,442,1868)"/><circle cx="504" cy="1496" r="31" transform="rotate(0,504,1496)"/><circle cx="504" cy="1558" r="31" transform="rotate(0,504,1558)"/><circle cx="504" cy="1620" r="31" transform="rotate(0,504,1620)"/><circle cx="504" cy="1682" r="31" transform="rotate(0,504,1682)"/><circle cx="504" cy="1744" r="31" transform="rotate(0,504,1744)"/><circle cx="504" cy="1806" r="31" transform="rotate(0,504,1806)"/><circle cx="504" cy="1868" r="31" transform="rotate(0,504,1868)"/></clipPath><clipPath id="clip-path-corners-dot-color-0-1"><rect x="225" y="1589" width="186" height="186" transform="rotate(-90,318,1682)"/></clipPath></defs><rect x="0" y="0" height="2000" width="2000" clip-path="url('#clip-path-background-color')" fill="#ffffff"/><rect x="101" y="101" height="1798" width="1798" clip-path="url('#clip-path-dot-color')" fill="#000000"/><rect x="101" y="101" height="434" width="434" clip-path="url('#clip-path-corners-square-color-0-0')" fill="#000000"/><rect x="225" y="225" height="186" width="186" clip-path="url('#clip-path-corners-dot-color-0-0')" fill="#000000"/><rect x="1465" y="101" height="434" width="434" clip-path="url('#clip-path-corners-square-color-1-0')" fill="#000000"/><rect x="1589" y="225" height="186" width="186" clip-path="url('#clip-path-corners-dot-color-1-0')" fill="#000000"/><rect x="101" y="1465" height="434" width="434" clip-path="url('#clip-path-corners-square-color-0-1')" fill="#000000"/><rect x="225" y="1589" height="186" width="186" clip-path="url('#clip-path-corners-dot-color-0-1')" fill="#000000"/><svg xmlns="http://www.w3.org/2000/svg" fill="none" viewBox="0 0 319 48" height="104px" width="930px" x="535" y="948">
<path fill="#141F2A" d="M22.84 15.32C22.84 14.52 22.7467 13.9333 22.56 13.56C22.4 13.16 22.08 12.88 21.6 12.72C21.12 12.56 20.36 12.48 19.32 12.48C19.24 12.48 19.2 12.4 19.2 12.24C19.2 12.08 19.24 12 19.32 12L21.24 12.04C22.4133 12.0933 23.3867 12.12 24.16 12.12C24.88 12.12 25.8 12.0933 26.92 12.04L28.88 12C28.96 12 29 12.08 29 12.24C29 12.4 28.96 12.48 28.88 12.48C27.8667 12.48 27.12 12.56 26.64 12.72C26.16 12.8533 25.8267 13.1067 25.64 13.48C25.48 13.8533 25.4 14.44 25.4 15.24V33.76C25.4 34.56 25.48 35.16 25.64 35.56C25.8267 35.9333 26.16 36.1867 26.64 36.32C27.12 36.4533 27.8667 36.52 28.88 36.52C28.96 36.52 29 36.6 29 36.76C29 36.92 28.96 37 28.88 37C28.0533 37 27.4 36.9867 26.92 36.96L24.16 36.92L21.24 36.96C20.76 36.9867 20.12 37 19.32 37C19.24 37 19.2 36.92 19.2 36.76C19.2 36.6 19.24 36.52 19.32 36.52C20.36 36.52 21.12 36.4533 21.6 36.32C22.08 36.1867 22.4 35.9333 22.56 35.56C22.7467 35.16 22.84 34.56 22.84 33.76V15.32ZM6.08 23.56H23.96V24.4H6.08V23.56ZM4.92 15.24C4.92 14.44 4.82667 13.8533 4.64 13.48C4.48 13.1067 4.16 12.8533 3.68 12.72C3.2 12.56 2.45333 12.48 1.44 12.48C1.38667 12.48 1.36 12.4 1.36 12.24C1.36 12.08 1.38667 12 1.44 12L3.48 12.04C4.6 12.0933 5.49333 12.12 6.16 12.12C6.93333 12.12 7.90667 12.0933 9.08 12.04L11 12C11.0533 12 11.08 12.08 11.08 12.24C11.08 12.4 11.0533 12.48 11 12.48C9.98667 12.48 9.22667 12.56 8.72 12.72C8.24 12.88 7.90667 13.16 7.72 13.56C7.56 13.9333 7.48 14.52 7.48 15.32V33.76C7.48 34.56 7.56 35.16 7.72 35.56C7.90667 35.9333 8.24 36.1867 8.72 36.32C9.2 36.4533 9.96 36.52 11 36.52C11.0533 36.52 11.08 36.6 11.08 36.76C11.08 36.92 11.0533 37 11 37C10.1733 37 9.52 36.9867 9.04 36.96L6.16 36.92L3.4 36.96C2.92 36.9867 2.25333 37 1.4 37C1.34667 37 1.32 36.92 1.32 36.76C1.32 36.6 1.34667 36.52 1.4 36.52C2.41333 36.52 3.16 36.4533 3.64 36.32C4.14667 36.1867 4.48 35.9333 4.64 35.56C4.82667 35.16 4.92 34.56 4.92 33.76V15.24ZM44.9916 37.48C42.5116 37.48 40.2982 36.9067 38.3516 35.76C36.4316 34.5867 34.9382 33.0133 33.8716 31.04C32.8316 29.04 32.3116 26.8667 32.3116 24.52C32.3116 21.7733 33.0049 19.4267 34.3916 17.48C35.7782 15.5067 37.5516 14.0267 39.7116 13.04C41.8982 12.0533 44.1249 11.56 46.3916 11.56C48.9249 11.56 51.1516 12.16 53.0716 13.36C54.9916 14.5333 56.4582 16.0933 57.4716 18.04C58.5116 19.9867 59.0316 22.0533 59.0316 24.24C59.0316 26.6667 58.3916 28.8933 57.1116 30.92C55.8316 32.9467 54.1116 34.5467 51.9516 35.72C49.8182 36.8933 47.4982 37.48 44.9916 37.48ZM46.3916 36.64C48.2049 36.64 49.8316 36.2 51.2716 35.32C52.7382 34.44 53.8849 33.16 54.7116 31.48C55.5649 29.7733 55.9916 27.7333 55.9916 25.36C55.9916 22.8533 55.5249 20.6267 54.5916 18.68C53.6582 16.7333 52.3382 15.2133 50.6316 14.12C48.9516 13.0267 46.9782 12.48 44.7116 12.48C41.7782 12.48 39.4849 13.4267 37.8316 15.32C36.1782 17.2133 35.3516 19.8133 35.3516 23.12C35.3516 25.6267 35.8182 27.92 36.7516 30C37.6849 32.0533 38.9916 33.68 40.6716 34.88C42.3516 36.0533 44.2582 36.64 46.3916 36.64ZM68.3766 33.6C68.3766 34.3733 68.4566 34.9333 68.6166 35.28C68.7766 35.6267 69.0699 35.8667 69.4966 36C69.9232 36.1067 70.6166 36.16 71.5766 36.16H75.9366C77.4566 36.16 78.6699 35.6933 79.5766 34.76C80.4832 33.8267 81.0832 32.5333 81.3766 30.88C81.3766 30.8 81.4432 30.7733 81.5766 30.8C81.7366 30.8 81.8166 30.84 81.8166 30.92C81.5766 33.1333 81.4566 34.96 81.4566 36.4C81.4566 36.6133 81.4166 36.7733 81.3366 36.88C81.2566 36.96 81.0966 37 80.8566 37H62.3766C62.3232 37 62.2966 36.92 62.2966 36.76C62.2966 36.6 62.3232 36.52 62.3766 36.52C63.3899 36.52 64.1232 36.4533 64.5766 36.32C65.0566 36.1867 65.3766 35.9333 65.5366 35.56C65.6966 35.16 65.7766 34.56 65.7766 33.76V15.24C65.7766 14.44 65.6966 13.8533 65.5366 13.48C65.3766 13.1067 65.0566 12.8533 64.5766 12.72C64.1232 12.56 63.3899 12.48 62.3766 12.48C62.3232 12.48 62.2966 12.4 62.2966 12.24C62.2966 12.08 62.3232 12 62.3766 12L64.3366 12.04C65.4566 12.0933 66.3632 12.12 67.0566 12.12C67.8032 12.12 68.7366 12.0933 69.8566 12.04L71.7766 12C71.8566 12 71.8966 12.08 71.8966 12.24C71.8966 12.4 71.8566 12.48 71.7766 12.48C70.7899 12.48 70.0566 12.56 69.5766 12.72C69.0966 12.8533 68.7766 13.12 68.6166 13.52C68.4566 13.8933 68.3766 14.48 68.3766 15.28V33.6ZM90.2647 33.76C90.2647 34.5867 90.3447 35.1867 90.5047 35.56C90.6647 35.9333 90.9714 36.1867 91.4247 36.32C91.9047 36.4533 92.6514 36.52 93.6647 36.52C93.7447 36.52 93.7847 36.6 93.7847 36.76C93.7847 36.92 93.7447 37 93.6647 37C92.8647 37 92.2247 36.9867 91.7447 36.96L88.9047 36.92L86.1447 36.96C85.6647 36.9867 85.0114 37 84.1847 37C84.1047 37 84.0647 36.92 84.0647 36.76C84.0647 36.6 84.1047 36.52 84.1847 36.52C85.198 36.52 85.9314 36.4533 86.3847 36.32C86.8647 36.1867 87.1847 35.9333 87.3447 35.56C87.5314 35.16 87.6247 34.56 87.6247 33.76V15.24C87.6247 14.44 87.5314 13.8533 87.3447 13.48C87.1847 13.1067 86.8647 12.8533 86.3847 12.72C85.9314 12.56 85.198 12.48 84.1847 12.48C84.1047 12.48 84.0647 12.4 84.0647 12.24C84.0647 12.08 84.1047 12 84.1847 12L86.1447 12.04C87.2647 12.0933 88.1847 12.12 88.9047 12.12C89.7047 12.12 90.6647 12.0933 91.7847 12.04L93.6647 12C93.7447 12 93.7847 12.08 93.7847 12.24C93.7847 12.4 93.7447 12.48 93.6647 12.48C92.678 12.48 91.9447 12.56 91.4647 12.72C90.9847 12.88 90.6647 13.16 90.5047 13.56C90.3447 13.9333 90.2647 14.52 90.2647 15.32V33.76ZM107.706 37.16C106.933 37.16 106.039 37.12 105.026 37.04C104.653 37.0133 104.173 36.9867 103.586 36.96C103.026 36.9333 102.399 36.92 101.706 36.92L98.9859 36.96C98.5059 36.9867 97.8393 37 96.9859 37C96.9326 37 96.9059 36.92 96.9059 36.76C96.9059 36.6 96.9326 36.52 96.9859 36.52C97.9993 36.52 98.7326 36.4533 99.1859 36.32C99.6659 36.1867 99.9859 35.9333 100.146 35.56C100.333 35.16 100.426 34.56 100.426 33.76V15.24C100.426 14.44 100.346 13.8533 100.186 13.48C100.026 13.1067 99.7059 12.8533 99.2259 12.72C98.7726 12.56 98.0393 12.48 97.0259 12.48C96.9726 12.48 96.9459 12.4 96.9459 12.24C96.9459 12.08 96.9726 12 97.0259 12L99.0259 12.04C100.146 12.0933 101.039 12.12 101.706 12.12C102.719 12.12 103.719 12.08 104.706 12C105.879 11.9467 106.693 11.92 107.146 11.92C109.919 11.92 112.373 12.4533 114.506 13.52C116.639 14.5867 118.293 16.04 119.466 17.88C120.666 19.72 121.266 21.7867 121.266 24.08C121.266 26.6667 120.653 28.96 119.426 30.96C118.226 32.9333 116.586 34.4667 114.506 35.56C112.426 36.6267 110.159 37.16 107.706 37.16ZM107.306 36.56C109.439 36.56 111.333 36.12 112.986 35.24C114.639 34.3333 115.919 33.0133 116.826 31.28C117.759 29.52 118.226 27.4133 118.226 24.96C118.226 22.64 117.786 20.5333 116.906 18.64C116.026 16.7467 114.773 15.2533 113.146 14.16C111.519 13.0667 109.639 12.52 107.506 12.52C106.359 12.52 105.466 12.5867 104.826 12.72C104.213 12.8533 103.759 13.12 103.466 13.52C103.173 13.92 103.026 14.52 103.026 15.32V33.32C103.026 34.12 103.133 34.7467 103.346 35.2C103.586 35.6533 104.013 36 104.626 36.24C105.266 36.4533 106.159 36.56 107.306 36.56ZM130.933 25.2H141.533L141.813 26H130.533L130.933 25.2ZM150.733 36.52C150.84 36.52 150.893 36.6 150.893 36.76C150.893 36.92 150.84 37 150.733 37C150.227 37 149.44 36.9733 148.373 36.92C147.307 36.8667 146.533 36.84 146.053 36.84C145.467 36.84 144.72 36.8667 143.813 36.92C142.96 36.9733 142.307 37 141.853 37C141.747 37 141.693 36.92 141.693 36.76C141.693 36.6 141.747 36.52 141.853 36.52C142.867 36.52 143.587 36.4267 144.013 36.24C144.467 36.0533 144.693 35.72 144.693 35.24C144.693 34.84 144.533 34.28 144.213 33.56L135.333 14.8L136.333 13.56L128.573 31.92C128.2 32.8267 128.013 33.5733 128.013 34.16C128.013 35.7333 129.32 36.52 131.933 36.52C132.067 36.52 132.133 36.6 132.133 36.76C132.133 36.92 132.067 37 131.933 37C131.453 37 130.76 36.9733 129.853 36.92C128.84 36.8667 127.96 36.84 127.213 36.84C126.52 36.84 125.72 36.8667 124.813 36.92C124.013 36.9733 123.347 37 122.813 37C122.68 37 122.613 36.92 122.613 36.76C122.613 36.6 122.68 36.52 122.813 36.52C123.56 36.52 124.187 36.3867 124.693 36.12C125.227 35.8267 125.72 35.3333 126.173 34.64C126.653 33.92 127.173 32.8933 127.733 31.56L136.173 11.64C136.227 11.56 136.32 11.52 136.453 11.52C136.587 11.52 136.667 11.56 136.693 11.64L146.133 31.52C147.04 33.4933 147.813 34.8267 148.453 35.52C149.093 36.1867 149.853 36.52 150.733 36.52ZM168.979 12.76C168.979 12.7067 168.873 12.68 168.659 12.68C163.886 12.68 160.633 12.76 158.899 12.92C157.166 13.0533 155.953 13.4 155.259 13.96C154.593 14.52 153.979 15.5733 153.419 17.12C153.419 17.1733 153.366 17.2 153.259 17.2C153.179 17.2 153.099 17.1867 153.019 17.16C152.939 17.1067 152.913 17.0667 152.939 17.04L154.539 10.8C154.539 10.7733 154.593 10.76 154.699 10.76C154.966 10.76 155.073 10.8 155.019 10.88C154.993 10.96 154.979 11.0667 154.979 11.2C154.979 11.52 155.126 11.7333 155.419 11.84C155.739 11.9467 156.366 12 157.299 12H171.899C172.006 12 172.086 12.0667 172.139 12.2C172.219 12.3067 172.233 12.4133 172.179 12.52L156.579 35.92L156.459 36.16C156.459 36.2133 156.566 36.24 156.779 36.24H166.979C168.766 36.24 170.126 35.8667 171.059 35.12C171.993 34.3733 172.606 33.2 172.899 31.6C172.926 31.5467 173.006 31.52 173.139 31.52C173.273 31.52 173.339 31.5467 173.339 31.6L172.779 36.68C172.779 36.76 172.739 36.8533 172.659 36.96C172.606 37.04 172.526 37.08 172.419 37.08C168.446 37.0267 162.073 37 153.299 37C153.166 37 153.073 36.9467 153.019 36.84C152.966 36.7067 152.979 36.5867 153.059 36.48L168.859 13L168.979 12.76ZM176.368 37C176.315 37 176.288 36.92 176.288 36.76C176.288 36.6 176.315 36.52 176.368 36.52C177.382 36.52 178.115 36.4533 178.568 36.32C179.048 36.1867 179.368 35.9333 179.528 35.56C179.715 35.16 179.808 34.56 179.808 33.76V15.24C179.808 14.44 179.715 13.8533 179.528 13.48C179.368 13.1067 179.048 12.8533 178.568 12.72C178.115 12.56 177.382 12.48 176.368 12.48C176.315 12.48 176.288 12.4 176.288 12.24C176.288 12.08 176.315 12 176.368 12H192.448C192.688 12 192.808 12.12 192.808 12.36L192.888 17.28C192.888 17.36 192.808 17.4133 192.648 17.44C192.515 17.44 192.448 17.4 192.448 17.32C192.368 15.9067 191.942 14.8133 191.168 14.04C190.395 13.24 189.368 12.84 188.088 12.84H185.648C184.715 12.84 184.022 12.92 183.568 13.08C183.115 13.2133 182.795 13.4533 182.608 13.8C182.448 14.1467 182.368 14.6933 182.368 15.44V33.6C182.368 34.32 182.448 34.8667 182.608 35.24C182.795 35.5867 183.102 35.8267 183.528 35.96C183.955 36.0933 184.622 36.16 185.528 36.16H188.728C190.008 36.16 191.075 35.7067 191.928 34.8C192.782 33.8933 193.355 32.64 193.648 31.04C193.648 30.9867 193.702 30.96 193.808 30.96C193.888 30.96 193.955 30.9867 194.008 31.04C194.088 31.0667 194.128 31.0933 194.128 31.12C193.888 32.8 193.768 34.56 193.768 36.4C193.768 36.6133 193.715 36.7733 193.608 36.88C193.528 36.96 193.368 37 193.128 37H176.368ZM190.888 27.68C190.888 26.5067 190.595 25.6667 190.008 25.16C189.448 24.6533 188.502 24.4 187.168 24.4H181.168V23.56H187.288C188.568 23.56 189.475 23.3467 190.008 22.92C190.568 22.4933 190.848 21.7733 190.848 20.76C190.848 20.7067 190.928 20.68 191.088 20.68C191.248 20.68 191.328 20.7067 191.328 20.76L191.288 24C191.288 24.7733 191.302 25.36 191.328 25.76L191.368 27.68C191.368 27.7333 191.288 27.76 191.128 27.76C190.968 27.76 190.888 27.7333 190.888 27.68Z"/>
<line stroke-opacity="0.3" stroke="#2F4A52" y2="37" x2="208.5" y1="2" x1="208.5"/>
<path fill="#C78D70" d="M232.06 23.06L226.8 37H224.7L219.44 23.06H221.38L225.76 35.08L230.14 23.06H232.06ZM241.208 24.54V29.2H246.288V30.7H241.208V35.5H246.888V37H239.388V23.04H246.888V24.54H241.208ZM265.934 37H264.114L256.794 25.9V37H254.974V23.04H256.794L264.114 34.12V23.04H265.934V37ZM276.148 23.06V31.88C276.148 33.12 276.448 34.04 277.048 34.64C277.661 35.24 278.508 35.54 279.588 35.54C280.655 35.54 281.488 35.24 282.088 34.64C282.701 34.04 283.008 33.12 283.008 31.88V23.06H284.828V31.86C284.828 33.02 284.595 34 284.128 34.8C283.661 35.5867 283.028 36.1733 282.228 36.56C281.441 36.9467 280.555 37.14 279.568 37.14C278.581 37.14 277.688 36.9467 276.888 36.56C276.101 36.1733 275.475 35.5867 275.008 34.8C274.555 34 274.328 33.02 274.328 31.86V23.06H276.148ZM295.016 24.54V29.2H300.096V30.7H295.016V35.5H300.696V37H293.196V23.04H300.696V24.54H295.016ZM313.202 37.14C312.282 37.14 311.456 36.98 310.722 36.66C310.002 36.3267 309.436 35.8733 309.022 35.3C308.609 34.7133 308.396 34.04 308.382 33.28H310.322C310.389 33.9333 310.656 34.4867 311.122 34.94C311.602 35.38 312.296 35.6 313.202 35.6C314.069 35.6 314.749 35.3867 315.242 34.96C315.749 34.52 316.002 33.96 316.002 33.28C316.002 32.7467 315.856 32.3133 315.562 31.98C315.269 31.6467 314.902 31.3933 314.462 31.22C314.022 31.0467 313.429 30.86 312.682 30.66C311.762 30.42 311.022 30.18 310.462 29.94C309.916 29.7 309.442 29.3267 309.042 28.82C308.656 28.3 308.462 27.6067 308.462 26.74C308.462 25.98 308.656 25.3067 309.042 24.72C309.429 24.1333 309.969 23.68 310.662 23.36C311.369 23.04 312.176 22.88 313.082 22.88C314.389 22.88 315.456 23.2067 316.282 23.86C317.122 24.5133 317.596 25.38 317.702 26.46H315.702C315.636 25.9267 315.356 25.46 314.862 25.06C314.369 24.6467 313.716 24.44 312.902 24.44C312.142 24.44 311.522 24.64 311.042 25.04C310.562 25.4267 310.322 25.9733 310.322 26.68C310.322 27.1867 310.462 27.6 310.742 27.92C311.036 28.24 311.389 28.4867 311.802 28.66C312.229 28.82 312.822 29.0067 313.582 29.22C314.502 29.4733 315.242 29.7267 315.802 29.98C316.362 30.22 316.842 30.6 317.242 31.12C317.642 31.6267 317.842 32.32 317.842 33.2C317.842 33.88 317.662 34.52 317.302 35.12C316.942 35.72 316.409 36.2067 315.702 36.58C314.996 36.9533 314.162 37.14 313.202 37.14Z"/>
</svg></svg>