<svg width="202" height="64" viewBox="0 0 202 64" fill="none" xmlns="http://www.w3.org/2000/svg">
<path d="M1.20083 22.272C1.12883 22.272 1.09283 22.2 1.09283 22.056C1.09283 21.888 1.12883 21.804 1.20083 21.804C2.35283 21.66 3.12083 20.88 3.50483 19.464C3.88883 18.048 4.08083 16.212 4.08083 13.956C4.08083 11.892 4.21283 10.38 4.47683 9.42C4.74083 8.436 5.20883 7.776 5.88083 7.44C6.57683 7.08 7.63283 6.9 9.04883 6.9C9.14483 6.9 9.19283 6.972 9.19283 7.116C9.19283 7.26 9.14483 7.332 9.04883 7.332C8.18483 7.332 7.51283 7.668 7.03283 8.34C6.57683 8.988 6.32483 9.924 6.27683 11.148C6.22883 14.1 6.13283 16.176 5.98883 17.376C5.84483 18.552 5.52083 19.488 5.01683 20.184C4.51283 20.856 3.62483 21.468 2.35283 22.02C3.60083 22.596 4.47683 23.244 4.98083 23.964C5.50883 24.66 5.84483 25.608 5.98883 26.808C6.13283 27.984 6.22883 30.036 6.27683 32.964C6.32483 34.188 6.57683 35.124 7.03283 35.772C7.51283 36.444 8.18483 36.78 9.04883 36.78C9.14483 36.78 9.19283 36.852 9.19283 36.996C9.19283 37.14 9.14483 37.212 9.04883 37.212C7.60883 37.212 6.54083 37.032 5.84483 36.672C5.17283 36.336 4.70483 35.676 4.44083 34.692C4.20083 33.708 4.08083 32.184 4.08083 30.12C4.08083 27.84 3.88883 26.004 3.50483 24.612C3.12083 23.196 2.35283 22.416 1.20083 22.272ZM30.1966 33.216C30.1006 33.264 30.0046 33.288 29.9086 33.288C29.5486 33.288 29.2366 33.012 28.9726 32.46C28.7086 31.908 28.5766 31.176 28.5766 30.264V23.46C28.5766 20.772 27.8206 19.428 26.3086 19.428C25.4926 19.428 24.8686 19.704 24.4366 20.256C24.0286 20.784 23.7526 21.396 23.6086 22.092C23.5126 22.548 23.3686 22.908 23.1766 23.172C23.0086 23.436 22.6966 23.568 22.2406 23.568C21.8566 23.568 21.5566 23.46 21.3406 23.244C21.1486 23.028 21.0526 22.776 21.0526 22.488C21.0526 21.912 21.4246 21.336 22.1686 20.76C22.9126 20.184 23.8006 19.704 24.8326 19.32C25.8646 18.936 26.7886 18.744 27.6046 18.744C28.5886 18.744 29.3326 19.056 29.8366 19.68C30.3406 20.304 30.5926 21.204 30.5926 22.38V29.112C30.5926 29.952 30.7006 30.564 30.9166 30.948C31.1326 31.332 31.4806 31.524 31.9606 31.524C32.4406 31.524 33.0406 31.368 33.7606 31.056H33.8326C33.9286 31.056 33.9886 31.116 34.0126 31.236C34.0366 31.332 34.0006 31.404 33.9046 31.452L30.1966 33.216ZM23.7166 33.252C22.8286 33.252 22.1326 33.024 21.6286 32.568C21.1486 32.088 20.9086 31.488 20.9086 30.768C20.9086 30.048 21.1966 29.424 21.7726 28.896C22.3486 28.368 23.2966 27.864 24.6166 27.384L28.9366 25.764L29.0446 26.232L25.2286 27.708C24.5566 27.972 24.0646 28.284 23.7526 28.644C23.4646 28.98 23.3206 29.388 23.3206 29.868C23.3206 30.444 23.5006 30.936 23.8606 31.344C24.2446 31.728 24.7366 31.92 25.3366 31.92C25.8166 31.92 26.3926 31.728 27.0646 31.344L29.3326 29.976L29.4046 30.444L26.7406 32.172C26.1406 32.556 25.6126 32.832 25.1566 33C24.7006 33.168 24.2206 33.252 23.7166 33.252ZM45.2786 33C45.2066 33 45.1706 32.928 45.1706 32.784C45.1706 32.64 45.2066 32.568 45.2786 32.568C45.9266 32.568 46.4066 32.508 46.7186 32.388C47.0306 32.244 47.2346 32.004 47.3306 31.668C47.4506 31.332 47.5106 30.804 47.5106 30.084V24.252C47.5106 22.812 47.2346 21.768 46.6826 21.12C46.1546 20.448 45.3266 20.112 44.1986 20.112C43.3106 20.112 42.4106 20.388 41.4986 20.94C40.6106 21.492 39.8426 22.248 39.1946 23.208L39.0506 22.776C40.1066 21.36 41.1506 20.316 42.1826 19.644C43.2146 18.972 44.2826 18.636 45.3866 18.636C46.7066 18.636 47.7266 19.02 48.4466 19.788C49.1906 20.532 49.5626 21.612 49.5626 23.028V30.084C49.5626 30.804 49.6106 31.332 49.7066 31.668C49.8266 32.004 50.0426 32.244 50.3546 32.388C50.6666 32.508 51.1466 32.568 51.7946 32.568C51.8666 32.568 51.9026 32.64 51.9026 32.784C51.9026 32.928 51.8666 33 51.7946 33C51.2426 33 50.8106 32.988 50.4986 32.964L48.5546 32.928L46.5746 32.964C46.2626 32.988 45.8306 33 45.2786 33ZM35.5946 33C35.5226 33 35.4866 32.928 35.4866 32.784C35.4866 32.64 35.5226 32.568 35.5946 32.568C36.2426 32.568 36.7226 32.508 37.0346 32.388C37.3466 32.244 37.5506 32.004 37.6466 31.668C37.7666 31.332 37.8266 30.804 37.8266 30.084V22.956C37.8266 22.14 37.7306 21.552 37.5386 21.192C37.3466 20.832 37.0226 20.652 36.5666 20.652C36.1826 20.652 35.5346 20.832 34.6226 21.192H34.5506C34.4546 21.192 34.3826 21.144 34.3346 21.048C34.3106 20.928 34.3466 20.844 34.4426 20.796L38.6186 18.816C38.6666 18.792 38.7386 18.78 38.8346 18.78C39.0506 18.78 39.2786 19.056 39.5186 19.608C39.7586 20.16 39.8786 20.868 39.8786 21.732V30.084C39.8786 30.804 39.9266 31.332 40.0226 31.668C40.1426 32.004 40.3586 32.244 40.6706 32.388C40.9826 32.508 41.4626 32.568 42.1106 32.568C42.1826 32.568 42.2186 32.64 42.2186 32.784C42.2186 32.928 42.1826 33 42.1106 33C41.5586 33 41.1266 32.988 40.8146 32.964L38.8706 32.928L36.8906 32.964C36.5786 32.988 36.1466 33 35.5946 33ZM63.8763 33C63.8043 33 63.7683 32.928 63.7683 32.784C63.7683 32.64 63.8043 32.568 63.8763 32.568C64.5243 32.568 65.0043 32.508 65.3163 32.388C65.6283 32.244 65.8323 32.004 65.9283 31.668C66.0483 31.332 66.1083 30.804 66.1083 30.084V24.252C66.1083 22.812 65.8323 21.768 65.2803 21.12C64.7523 20.448 63.9243 20.112 62.7963 20.112C61.9083 20.112 61.0083 20.388 60.0963 20.94C59.2083 21.492 58.4403 22.248 57.7923 23.208L57.6483 22.776C58.7043 21.36 59.7483 20.316 60.7803 19.644C61.8123 18.972 62.8803 18.636 63.9843 18.636C65.3043 18.636 66.3243 19.02 67.0443 19.788C67.7883 20.532 68.1603 21.612 68.1603 23.028V30.084C68.1603 30.804 68.2083 31.332 68.3043 31.668C68.4243 32.004 68.6403 32.244 68.9523 32.388C69.2643 32.508 69.7443 32.568 70.3923 32.568C70.4643 32.568 70.5003 32.64 70.5003 32.784C70.5003 32.928 70.4643 33 70.3923 33C69.8403 33 69.4083 32.988 69.0963 32.964L67.1523 32.928L65.1723 32.964C64.8603 32.988 64.4283 33 63.8763 33ZM54.1923 33C54.1203 33 54.0843 32.928 54.0843 32.784C54.0843 32.64 54.1203 32.568 54.1923 32.568C54.8403 32.568 55.3203 32.508 55.6323 32.388C55.9443 32.244 56.1483 32.004 56.2443 31.668C56.3643 31.332 56.4243 30.804 56.4243 30.084V22.956C56.4243 22.14 56.3283 21.552 56.1363 21.192C55.9443 20.832 55.6203 20.652 55.1643 20.652C54.7803 20.652 54.1323 20.832 53.2203 21.192H53.1483C53.0523 21.192 52.9803 21.144 52.9323 21.048C52.9083 20.928 52.9443 20.844 53.0403 20.796L57.2163 18.816C57.2643 18.792 57.3363 18.78 57.4323 18.78C57.6483 18.78 57.8763 19.056 58.1163 19.608C58.3563 20.16 58.4763 20.868 58.4763 21.732V30.084C58.4763 30.804 58.5243 31.332 58.6203 31.668C58.7403 32.004 58.9563 32.244 59.2683 32.388C59.5803 32.508 60.0603 32.568 60.7083 32.568C60.7803 32.568 60.8163 32.64 60.8163 32.784C60.8163 32.928 60.7803 33 60.7083 33C60.1563 33 59.7243 32.988 59.4123 32.964L57.4683 32.928L55.4883 32.964C55.1763 32.988 54.7443 33 54.1923 33ZM79.0539 33.432C77.6619 33.432 76.4739 33.108 75.4899 32.46C74.5059 31.812 73.7499 30.96 73.2219 29.904C72.7179 28.848 72.4659 27.72 72.4659 26.52C72.4659 25.104 72.8019 23.808 73.4739 22.632C74.1459 21.432 75.0579 20.496 76.2099 19.824C77.3859 19.128 78.6699 18.78 80.0619 18.78C81.4059 18.78 82.4379 19.14 83.1579 19.86C83.8779 20.58 84.2379 21.588 84.2379 22.884C84.2379 23.22 84.2019 23.46 84.1299 23.604C84.0819 23.748 83.9739 23.82 83.8059 23.82H81.7899L81.8259 23.172C81.8259 21.972 81.5619 21.06 81.0339 20.436C80.5059 19.812 79.7859 19.5 78.8739 19.5C77.6019 19.5 76.6059 20.004 75.8859 21.012C75.1899 22.02 74.8419 23.4 74.8419 25.152C74.8419 27.24 75.3339 28.932 76.3179 30.228C77.3019 31.524 78.6819 32.172 80.4579 32.172C81.1779 32.172 81.7899 32.076 82.2939 31.884C82.8219 31.692 83.4099 31.392 84.0579 30.984H84.0939C84.1659 30.984 84.2259 31.032 84.2739 31.128C84.3459 31.2 84.3579 31.272 84.3099 31.344C82.6779 32.736 80.9259 33.432 79.0539 33.432ZM74.1579 23.388L82.3299 23.244V23.82L74.1939 23.856L74.1579 23.388ZM87.0892 35.736C87.0412 35.736 86.9932 35.652 86.9452 35.484C86.9212 35.34 86.9092 35.172 86.9092 34.98C86.9092 34.812 86.9212 34.656 86.9452 34.512C86.9692 34.368 87.0052 34.296 87.0532 34.296H98.9692C99.0172 34.296 99.0532 34.368 99.0772 34.512C99.1252 34.68 99.1492 34.848 99.1492 35.016C99.1492 35.184 99.1252 35.34 99.0772 35.484C99.0532 35.652 99.0172 35.736 98.9692 35.736H87.0892ZM103.809 21.3C103.809 22.14 104.085 22.812 104.637 23.316C105.189 23.796 106.005 24.312 107.085 24.864C107.925 25.296 108.573 25.668 109.029 25.98C109.509 26.292 109.917 26.7 110.253 27.204C110.589 27.708 110.757 28.32 110.757 29.04C110.757 30.264 110.301 31.296 109.389 32.136C108.477 32.976 107.241 33.396 105.681 33.396C104.409 33.396 103.257 33.036 102.225 32.316C102.081 32.22 102.009 32.076 102.009 31.884L101.937 29.076C101.937 29.004 101.997 28.968 102.117 28.968C102.261 28.944 102.345 28.968 102.369 29.04C102.825 30.264 103.413 31.188 104.133 31.812C104.877 32.412 105.729 32.712 106.689 32.712C107.433 32.712 108.009 32.544 108.417 32.208C108.849 31.848 109.065 31.32 109.065 30.624C109.065 29.952 108.909 29.388 108.597 28.932C108.309 28.452 107.949 28.08 107.517 27.816C107.085 27.528 106.497 27.192 105.753 26.808C104.961 26.424 104.325 26.076 103.845 25.764C103.389 25.452 102.993 25.044 102.657 24.54C102.345 24.036 102.189 23.412 102.189 22.668C102.189 21.372 102.669 20.388 103.629 19.716C104.613 19.02 105.765 18.672 107.085 18.672C108.045 18.672 108.921 18.852 109.713 19.212C109.857 19.26 109.941 19.32 109.965 19.392C110.013 19.44 110.037 19.512 110.037 19.608C110.037 20.088 110.025 20.46 110.001 20.724L109.965 22.236C109.965 22.284 109.893 22.308 109.749 22.308C109.605 22.308 109.533 22.284 109.533 22.236C109.533 21.468 109.125 20.796 108.309 20.22C107.517 19.644 106.677 19.356 105.789 19.356C105.165 19.356 104.673 19.524 104.313 19.86C103.977 20.172 103.809 20.652 103.809 21.3ZM120.257 33.432C118.865 33.432 117.677 33.108 116.693 32.46C115.709 31.812 114.953 30.96 114.425 29.904C113.921 28.848 113.669 27.72 113.669 26.52C113.669 25.104 114.005 23.808 114.677 22.632C115.349 21.432 116.261 20.496 117.413 19.824C118.589 19.128 119.873 18.78 121.265 18.78C122.609 18.78 123.641 19.14 124.361 19.86C125.081 20.58 125.441 21.588 125.441 22.884C125.441 23.22 125.405 23.46 125.333 23.604C125.285 23.748 125.177 23.82 125.009 23.82H122.993L123.029 23.172C123.029 21.972 122.765 21.06 122.237 20.436C121.709 19.812 120.989 19.5 120.077 19.5C118.805 19.5 117.809 20.004 117.089 21.012C116.393 22.02 116.045 23.4 116.045 25.152C116.045 27.24 116.537 28.932 117.521 30.228C118.505 31.524 119.885 32.172 121.661 32.172C122.381 32.172 122.993 32.076 123.497 31.884C124.025 31.692 124.613 31.392 125.261 30.984H125.297C125.369 30.984 125.429 31.032 125.477 31.128C125.549 31.2 125.561 31.272 125.513 31.344C123.881 32.736 122.129 33.432 120.257 33.432ZM115.361 23.388L123.533 23.244V23.82L115.397 23.856L115.361 23.388ZM132.072 22.848C133.344 21.264 134.328 20.196 135.024 19.644C135.72 19.068 136.368 18.78 136.968 18.78C137.496 18.78 138 18.924 138.48 19.212C138.96 19.5 139.2 19.848 139.2 20.256C139.2 20.568 139.092 20.832 138.876 21.048C138.66 21.264 138.372 21.372 138.012 21.372C137.796 21.372 137.604 21.336 137.436 21.264C137.292 21.168 137.112 21.036 136.896 20.868C136.68 20.676 136.476 20.532 136.284 20.436C136.092 20.34 135.864 20.292 135.6 20.292C135.24 20.292 134.844 20.472 134.412 20.832C133.98 21.192 133.248 21.996 132.216 23.244L132.072 22.848ZM128.688 33C128.616 33 128.58 32.928 128.58 32.784C128.58 32.64 128.616 32.568 128.688 32.568C129.336 32.568 129.816 32.508 130.128 32.388C130.44 32.244 130.644 32.004 130.74 31.668C130.86 31.332 130.92 30.804 130.92 30.084V22.956C130.92 22.14 130.824 21.552 130.632 21.192C130.44 20.832 130.116 20.652 129.66 20.652C129.276 20.652 128.628 20.832 127.716 21.192H127.644C127.548 21.192 127.476 21.144 127.428 21.048C127.404 20.928 127.44 20.844 127.536 20.796L131.712 18.816C131.76 18.792 131.832 18.78 131.928 18.78C132.144 18.78 132.372 19.056 132.612 19.608C132.852 20.16 132.972 20.868 132.972 21.732V30.084C132.972 30.804 133.056 31.332 133.224 31.668C133.416 32.004 133.752 32.244 134.232 32.388C134.712 32.508 135.456 32.568 136.464 32.568C136.56 32.568 136.608 32.64 136.608 32.784C136.608 32.928 136.56 33 136.464 33C135.696 33 135.084 32.988 134.628 32.964L131.964 32.928L129.984 32.964C129.672 32.988 129.24 33 128.688 33ZM142.09 33C142.042 33 142.018 32.928 142.018 32.784C142.018 32.64 142.042 32.568 142.09 32.568C142.738 32.568 143.218 32.508 143.53 32.388C143.866 32.244 144.094 32.004 144.214 31.668C144.334 31.332 144.394 30.804 144.394 30.084V23.352C144.394 22.488 144.298 21.864 144.106 21.48C143.938 21.096 143.638 20.904 143.206 20.904C142.774 20.904 142.234 21.072 141.586 21.408H141.55C141.454 21.408 141.382 21.348 141.334 21.228C141.286 21.108 141.298 21.024 141.37 20.976L146.05 18.816L146.194 18.78C146.242 18.78 146.302 18.816 146.374 18.888C146.446 18.936 146.482 18.996 146.482 19.068C146.482 19.236 146.47 19.716 146.446 20.508C146.422 21.3 146.41 22.236 146.41 23.316V30.084C146.41 30.804 146.47 31.332 146.59 31.668C146.71 32.004 146.926 32.244 147.238 32.388C147.55 32.508 148.03 32.568 148.678 32.568C148.75 32.568 148.786 32.64 148.786 32.784C148.786 32.928 148.75 33 148.678 33C148.126 33 147.682 32.988 147.346 32.964L145.402 32.928L143.458 32.964C143.122 32.988 142.666 33 142.09 33ZM145.114 14.568C144.634 14.568 144.25 14.436 143.962 14.172C143.674 13.908 143.53 13.536 143.53 13.056C143.53 12.576 143.674 12.204 143.962 11.94C144.25 11.676 144.634 11.544 145.114 11.544C145.594 11.544 145.966 11.676 146.23 11.94C146.494 12.204 146.626 12.576 146.626 13.056C146.626 13.536 146.494 13.908 146.23 14.172C145.966 14.436 145.594 14.568 145.114 14.568ZM161.329 33C161.257 33 161.221 32.928 161.221 32.784C161.221 32.64 161.257 32.568 161.329 32.568C161.977 32.568 162.457 32.508 162.769 32.388C163.081 32.244 163.285 32.004 163.381 31.668C163.501 31.332 163.561 30.804 163.561 30.084V24.252C163.561 22.812 163.285 21.768 162.733 21.12C162.205 20.448 161.377 20.112 160.249 20.112C159.361 20.112 158.461 20.388 157.549 20.94C156.661 21.492 155.893 22.248 155.245 23.208L155.101 22.776C156.157 21.36 157.201 20.316 158.233 19.644C159.265 18.972 160.333 18.636 161.437 18.636C162.757 18.636 163.777 19.02 164.497 19.788C165.241 20.532 165.613 21.612 165.613 23.028V30.084C165.613 30.804 165.661 31.332 165.757 31.668C165.877 32.004 166.093 32.244 166.405 32.388C166.717 32.508 167.197 32.568 167.845 32.568C167.917 32.568 167.953 32.64 167.953 32.784C167.953 32.928 167.917 33 167.845 33C167.293 33 166.861 32.988 166.549 32.964L164.605 32.928L162.625 32.964C162.313 32.988 161.881 33 161.329 33ZM151.645 33C151.573 33 151.537 32.928 151.537 32.784C151.537 32.64 151.573 32.568 151.645 32.568C152.293 32.568 152.773 32.508 153.085 32.388C153.397 32.244 153.601 32.004 153.697 31.668C153.817 31.332 153.877 30.804 153.877 30.084V22.956C153.877 22.14 153.781 21.552 153.589 21.192C153.397 20.832 153.073 20.652 152.617 20.652C152.233 20.652 151.585 20.832 150.673 21.192H150.601C150.505 21.192 150.433 21.144 150.385 21.048C150.361 20.928 150.397 20.844 150.493 20.796L154.669 18.816C154.717 18.792 154.789 18.78 154.885 18.78C155.101 18.78 155.329 19.056 155.569 19.608C155.809 20.16 155.929 20.868 155.929 21.732V30.084C155.929 30.804 155.977 31.332 156.073 31.668C156.193 32.004 156.409 32.244 156.721 32.388C157.033 32.508 157.513 32.568 158.161 32.568C158.233 32.568 158.269 32.64 158.269 32.784C158.269 32.928 158.233 33 158.161 33C157.609 33 157.177 32.988 156.865 32.964L154.921 32.928L152.941 32.964C152.629 32.988 152.197 33 151.645 33ZM176.507 33.432C175.115 33.432 173.927 33.108 172.943 32.46C171.959 31.812 171.203 30.96 170.675 29.904C170.171 28.848 169.919 27.72 169.919 26.52C169.919 25.104 170.255 23.808 170.927 22.632C171.599 21.432 172.511 20.496 173.663 19.824C174.839 19.128 176.123 18.78 177.515 18.78C178.859 18.78 179.891 19.14 180.611 19.86C181.331 20.58 181.691 21.588 181.691 22.884C181.691 23.22 181.655 23.46 181.583 23.604C181.535 23.748 181.427 23.82 181.259 23.82H179.243L179.279 23.172C179.279 21.972 179.015 21.06 178.487 20.436C177.959 19.812 177.239 19.5 176.327 19.5C175.055 19.5 174.059 20.004 173.339 21.012C172.643 22.02 172.295 23.4 172.295 25.152C172.295 27.24 172.787 28.932 173.771 30.228C174.755 31.524 176.135 32.172 177.911 32.172C178.631 32.172 179.243 32.076 179.747 31.884C180.275 31.692 180.863 31.392 181.511 30.984H181.547C181.619 30.984 181.679 31.032 181.727 31.128C181.799 31.2 181.811 31.272 181.763 31.344C180.131 32.736 178.379 33.432 176.507 33.432ZM171.611 23.388L179.783 23.244V23.82L171.647 23.856L171.611 23.388ZM200.792 22.272C199.64 22.416 198.872 23.196 198.488 24.612C198.104 26.004 197.912 27.84 197.912 30.12C197.912 32.184 197.78 33.708 197.516 34.692C197.276 35.676 196.808 36.336 196.112 36.672C195.44 37.032 194.384 37.212 192.944 37.212C192.848 37.212 192.8 37.14 192.8 36.996C192.8 36.852 192.848 36.78 192.944 36.78C193.808 36.78 194.468 36.444 194.924 35.772C195.404 35.124 195.668 34.188 195.716 32.964C195.764 30.036 195.86 27.984 196.004 26.808C196.148 25.608 196.472 24.66 196.976 23.964C197.504 23.244 198.392 22.596 199.64 22.02C198.368 21.468 197.48 20.856 196.976 20.184C196.472 19.488 196.148 18.552 196.004 17.376C195.86 16.176 195.764 14.1 195.716 11.148C195.668 9.924 195.404 8.988 194.924 8.34C194.468 7.668 193.808 7.332 192.944 7.332C192.848 7.332 192.8 7.26 192.8 7.116C192.8 6.972 192.848 6.9 192.944 6.9C194.36 6.9 195.404 7.08 196.076 7.44C196.772 7.776 197.252 8.436 197.516 9.42C197.78 10.38 197.912 11.892 197.912 13.956C197.912 16.212 198.104 18.048 198.488 19.464C198.872 20.88 199.64 21.66 200.792 21.804C200.864 21.804 200.9 21.888 200.9 22.056C200.9 22.2 200.864 22.272 200.792 22.272Z" fill="#FFC86A"/>
<path d="M49.1848 57.22C48.9448 57.22 48.7514 57.1467 48.6048 57C48.4714 56.8667 48.4048 56.68 48.4048 56.44C48.4048 56.2133 48.4714 56.0333 48.6048 55.9C48.7514 55.7667 48.9448 55.7 49.1848 55.7C49.4381 55.7 49.6314 55.7667 49.7648 55.9C49.8981 56.0333 49.9648 56.2133 49.9648 56.44C49.9648 56.68 49.8981 56.8667 49.7648 57C49.6314 57.1467 49.4381 57.22 49.1848 57.22ZM49.9248 51.6C49.6848 51.6 49.4914 51.5333 49.3448 51.4C49.2114 51.2533 49.1448 51.06 49.1448 50.82C49.1448 50.5933 49.2114 50.4133 49.3448 50.28C49.4914 50.1467 49.6848 50.08 49.9248 50.08C50.1781 50.08 50.3714 50.1467 50.5048 50.28C50.6381 50.4133 50.7048 50.5933 50.7048 50.82C50.7048 51.06 50.6381 51.2533 50.5048 51.4C50.3714 51.5333 50.1781 51.6 49.9248 51.6ZM60.1585 57.26C59.5852 57.26 59.1452 57.04 58.8385 56.6C58.5452 56.1467 58.3985 55.6 58.3985 54.96C58.3985 54.4933 58.4985 53.98 58.6985 53.42C58.8985 52.8467 59.1785 52.1867 59.5385 51.44L59.8985 50.66C59.9518 50.5533 59.9785 50.4533 59.9785 50.36C59.9785 50.2267 59.8785 50.16 59.6785 50.16H58.6385C58.2785 50.16 58.0118 50.1867 57.8385 50.24C57.6785 50.28 57.5518 50.3733 57.4585 50.52C57.3652 50.6667 57.2585 50.9133 57.1385 51.26C57.1252 51.3 57.0918 51.32 57.0385 51.32C56.9985 51.32 56.9652 51.3067 56.9385 51.28C56.9118 51.2533 56.9052 51.2133 56.9185 51.16C57.1185 50.56 57.2918 50.1333 57.4385 49.88C57.5852 49.6267 57.7585 49.46 57.9585 49.38C58.1585 49.3 58.4652 49.26 58.8785 49.26H60.6385C60.7852 49.26 60.8585 49.2867 60.8585 49.34C60.8585 49.3667 60.8385 49.42 60.7985 49.5C60.4518 50.2867 60.1518 51.0867 59.8985 51.9C59.6452 52.7 59.4785 53.4067 59.3985 54.02C59.3718 54.3133 59.3585 54.52 59.3585 54.64C59.3585 55.2267 59.4652 55.6867 59.6785 56.02C59.9052 56.34 60.2185 56.5 60.6185 56.5C61.0852 56.5 61.5518 56.3 62.0185 55.9C62.4985 55.5 62.9185 54.9533 63.2785 54.26C63.6385 53.5533 63.8852 52.76 64.0185 51.88C64.0452 51.7333 64.0585 51.5333 64.0585 51.28C64.0585 50.96 64.0118 50.7133 63.9185 50.54C63.8385 50.3533 63.7185 50.26 63.5585 50.26C63.3585 50.26 63.1985 50.4133 63.0785 50.72C62.9718 51.0133 62.8918 51.3667 62.8385 51.78C62.7718 52.2733 62.7385 52.6867 62.7385 53.02C62.7385 54.0467 62.9185 54.8867 63.2785 55.54C63.6518 56.18 64.1518 56.5 64.7785 56.5C65.0985 56.5 65.4452 56.36 65.8185 56.08C66.1918 55.7867 66.5252 55.3867 66.8185 54.88C67.1252 54.36 67.3385 53.7733 67.4585 53.12C67.5252 52.7733 67.5585 52.4133 67.5585 52.04C67.5585 51.5867 67.5052 51.24 67.3985 51C67.2918 50.7467 67.1385 50.5 66.9385 50.26C66.8318 50.14 66.7518 50.04 66.6985 49.96C66.6585 49.88 66.6385 49.7867 66.6385 49.68C66.6385 49.48 66.7118 49.3333 66.8585 49.24C67.0052 49.1333 67.1652 49.08 67.3385 49.08C67.8852 49.08 68.1585 49.7067 68.1585 50.96C68.1585 51.44 68.1318 51.86 68.0785 52.22C67.9318 53.22 67.6452 54.1067 67.2185 54.88C66.7918 55.64 66.3118 56.2267 65.7785 56.64C65.2452 57.0533 64.7585 57.26 64.3185 57.26C63.7185 57.26 63.2318 56.9133 62.8585 56.22C62.4985 55.5133 62.3185 54.66 62.3185 53.66C62.3185 53.2333 62.3585 52.8 62.4385 52.36C62.5718 51.48 62.7852 50.7267 63.0785 50.1C63.3718 49.4733 63.6718 49.16 63.9785 49.16C64.2052 49.16 64.3718 49.2867 64.4785 49.54C64.5985 49.7933 64.6585 50.1267 64.6585 50.54C64.6585 50.8333 64.6318 51.1067 64.5785 51.36C64.3518 52.6267 63.9918 53.7067 63.4985 54.6C63.0185 55.4933 62.4785 56.16 61.8785 56.6C61.2785 57.04 60.7052 57.26 60.1585 57.26ZM71.8827 57.24C71.0561 57.24 70.4294 56.9733 70.0027 56.44C69.5761 55.9067 69.3627 55.2133 69.3627 54.36C69.3627 54.0533 69.3961 53.7 69.4627 53.3C69.5827 52.6333 69.8627 51.9667 70.3027 51.3C70.7427 50.6333 71.2827 50.0867 71.9227 49.66C72.5761 49.2333 73.2561 49.02 73.9627 49.02C74.3761 49.02 74.6961 49.1 74.9227 49.26C75.1494 49.4067 75.2627 49.6133 75.2627 49.88C75.2627 49.9733 75.2561 50.0467 75.2427 50.1C75.1494 50.5 74.8561 50.8867 74.3627 51.26C73.8827 51.62 73.2694 51.9333 72.5227 52.2C71.7761 52.4667 70.9827 52.6467 70.1427 52.74L70.1827 52.48C71.2627 52.3333 72.1494 52.0933 72.8427 51.76C73.5361 51.4267 73.9494 51.0133 74.0827 50.52C74.1094 50.4533 74.1227 50.36 74.1227 50.24C74.1227 50 74.0227 49.8267 73.8227 49.72C73.6227 49.6133 73.3827 49.56 73.1027 49.56C72.4094 49.56 71.8361 49.8533 71.3827 50.44C70.9427 51.0133 70.6494 51.7467 70.5027 52.64C70.4227 53.0533 70.3827 53.4533 70.3827 53.84C70.3827 54.68 70.5694 55.3533 70.9427 55.86C71.3294 56.3533 71.8627 56.6 72.5427 56.6C73.3161 56.6 74.0027 56.38 74.6027 55.94H74.6427C74.6827 55.94 74.7161 55.96 74.7427 56C74.7827 56.04 74.7827 56.08 74.7427 56.12C73.7961 56.8667 72.8427 57.24 71.8827 57.24ZM78.4801 57.26C77.9067 57.26 77.4401 57.1333 77.0801 56.88C76.7334 56.6133 76.5601 56.26 76.5601 55.82C76.5601 55.7667 76.5734 55.66 76.6001 55.5L78.7001 44.46C78.7267 44.3 78.7401 44.1867 78.7401 44.12C78.7401 43.7733 78.5867 43.6 78.2801 43.6C78.0267 43.6 77.6867 43.7067 77.2601 43.92H77.2201C77.1667 43.92 77.1334 43.8867 77.1201 43.82C77.1067 43.7533 77.1267 43.7133 77.1801 43.7L79.6201 42.5H79.6601C79.7134 42.5 79.7601 42.52 79.8001 42.56C79.8401 42.6 79.8534 42.6333 79.8401 42.66L77.5601 55.08C77.5467 55.1467 77.5401 55.2333 77.5401 55.34C77.5401 55.7667 77.7001 56.1133 78.0201 56.38C78.3534 56.6333 78.7867 56.76 79.3201 56.76C79.7734 56.76 80.2201 56.5933 80.6601 56.26C81.1134 55.9267 81.5134 55.4467 81.8601 54.82C82.2067 54.1933 82.4601 53.4533 82.6201 52.6C82.7001 52.2 82.7401 51.8333 82.7401 51.5C82.7401 50.98 82.6334 50.5733 82.4201 50.28C82.2201 49.9733 81.9001 49.82 81.4601 49.82C80.8867 49.82 80.3401 50.04 79.8201 50.48C79.3001 50.92 78.8401 51.54 78.4401 52.34C78.0534 53.1267 77.7601 54.04 77.5601 55.08L77.4601 54.68C77.6201 53.68 77.9401 52.7467 78.4201 51.88C78.9134 51 79.4934 50.3067 80.1601 49.8C80.8267 49.28 81.5067 49.02 82.2001 49.02C82.7067 49.02 83.1067 49.2067 83.4001 49.58C83.6934 49.9533 83.8401 50.4533 83.8401 51.08C83.8401 51.32 83.8067 51.62 83.7401 51.98C83.5267 53.0733 83.1201 54.02 82.5201 54.82C81.9334 55.62 81.2734 56.2267 80.5401 56.64C79.8067 57.0533 79.1201 57.26 78.4801 57.26ZM90.9413 57.26C90.4747 57.26 90.088 57.1067 89.7813 56.8C89.488 56.48 89.3413 55.9867 89.3413 55.32C89.3413 55.0267 89.368 54.7467 89.4213 54.48C89.5947 53.5067 89.9547 52.6067 90.5013 51.78C91.048 50.94 91.7013 50.2733 92.4613 49.78C93.2213 49.2733 93.988 49.02 94.7613 49.02C95.1613 49.02 95.508 49.1333 95.8013 49.36C96.0947 49.5733 96.268 49.9067 96.3213 50.36L95.5213 52.08C94.868 53.6667 94.148 54.9267 93.3613 55.86C92.5747 56.7933 91.768 57.26 90.9413 57.26ZM91.5013 56.4C92.1147 56.4 92.7213 56.06 93.3213 55.38C93.9347 54.6867 94.4347 53.8933 94.8213 53C95.2213 52.0933 95.4213 51.3867 95.4213 50.88C95.4213 50.4933 95.3147 50.1933 95.1013 49.98C94.888 49.7667 94.588 49.66 94.2013 49.66C93.268 49.66 92.448 50.02 91.7413 50.74C91.048 51.4467 90.588 52.4467 90.3613 53.74C90.308 54.0467 90.2813 54.3533 90.2813 54.66C90.2813 55.2333 90.388 55.6667 90.6013 55.96C90.8147 56.2533 91.1147 56.4 91.5013 56.4ZM95.1613 57.18C94.9347 57.18 94.768 57.12 94.6613 57C94.568 56.8667 94.5213 56.6533 94.5213 56.36C94.5213 56.0533 94.568 55.6733 94.6613 55.22L96.7013 44.46C96.728 44.3 96.7413 44.1867 96.7413 44.12C96.7413 43.7733 96.588 43.6 96.2813 43.6C96.028 43.6 95.688 43.7067 95.2613 43.92H95.2213C95.1813 43.92 95.148 43.8867 95.1213 43.82C95.108 43.7533 95.128 43.7133 95.1813 43.7L97.6413 42.5H97.6813C97.7213 42.5 97.7613 42.52 97.8013 42.56C97.8413 42.6 97.8547 42.6333 97.8413 42.66L95.5013 55.22C95.4613 55.4333 95.4413 55.62 95.4413 55.78C95.4413 56.22 95.5813 56.44 95.8613 56.44C96.128 56.44 96.588 56.1133 97.2413 55.46C97.268 55.4333 97.288 55.42 97.3013 55.42C97.3413 55.42 97.3747 55.4467 97.4013 55.5C97.4413 55.54 97.4413 55.58 97.4013 55.62C96.9213 56.1533 96.508 56.5467 96.1613 56.8C95.8147 57.0533 95.4813 57.18 95.1613 57.18ZM100.809 57.24C99.9818 57.24 99.3552 56.9733 98.9285 56.44C98.5018 55.9067 98.2885 55.2133 98.2885 54.36C98.2885 54.0533 98.3218 53.7 98.3885 53.3C98.5085 52.6333 98.7885 51.9667 99.2285 51.3C99.6685 50.6333 100.209 50.0867 100.849 49.66C101.502 49.2333 102.182 49.02 102.889 49.02C103.302 49.02 103.622 49.1 103.849 49.26C104.075 49.4067 104.189 49.6133 104.189 49.88C104.189 49.9733 104.182 50.0467 104.169 50.1C104.075 50.5 103.782 50.8867 103.289 51.26C102.809 51.62 102.195 51.9333 101.449 52.2C100.702 52.4667 99.9085 52.6467 99.0685 52.74L99.1085 52.48C100.189 52.3333 101.075 52.0933 101.769 51.76C102.462 51.4267 102.875 51.0133 103.009 50.52C103.035 50.4533 103.049 50.36 103.049 50.24C103.049 50 102.949 49.8267 102.749 49.72C102.549 49.6133 102.309 49.56 102.029 49.56C101.335 49.56 100.762 49.8533 100.309 50.44C99.8685 51.0133 99.5752 51.7467 99.4285 52.64C99.3485 53.0533 99.3085 53.4533 99.3085 53.84C99.3085 54.68 99.4952 55.3533 99.8685 55.86C100.255 56.3533 100.789 56.6 101.469 56.6C102.242 56.6 102.929 56.38 103.529 55.94H103.569C103.609 55.94 103.642 55.96 103.669 56C103.709 56.04 103.709 56.08 103.669 56.12C102.722 56.8667 101.769 57.24 100.809 57.24ZM108.186 57.26C107.613 57.26 107.173 57.04 106.866 56.6C106.573 56.1467 106.426 55.6 106.426 54.96C106.426 54.4933 106.513 54.0067 106.686 53.5C106.873 52.9933 107.159 52.3133 107.546 51.46C107.599 51.3667 107.726 51.1 107.926 50.66C107.979 50.5533 108.006 50.4533 108.006 50.36C108.006 50.2267 107.906 50.16 107.706 50.16H106.666C106.306 50.16 106.039 50.1867 105.866 50.24C105.706 50.28 105.579 50.3733 105.486 50.52C105.393 50.6667 105.286 50.9133 105.166 51.26C105.153 51.3 105.119 51.32 105.066 51.32C105.026 51.32 104.993 51.3067 104.966 51.28C104.939 51.2533 104.933 51.2133 104.946 51.16C105.146 50.56 105.319 50.1333 105.466 49.88C105.613 49.6267 105.786 49.46 105.986 49.38C106.186 49.3 106.493 49.26 106.906 49.26H108.666C108.813 49.26 108.886 49.2867 108.886 49.34C108.886 49.3667 108.866 49.42 108.826 49.5C107.813 51.8067 107.306 53.5067 107.306 54.6C107.306 55.1733 107.426 55.62 107.666 55.94C107.906 56.26 108.233 56.42 108.646 56.42C109.259 56.42 109.853 56.12 110.426 55.52C110.999 54.9067 111.426 54.1067 111.706 53.12C111.839 52.6667 111.906 52.2267 111.906 51.8C111.906 51.1733 111.719 50.7 111.346 50.38C111.333 50.3667 111.253 50.3067 111.106 50.2C110.959 50.08 110.886 49.9067 110.886 49.68C110.886 49.48 110.959 49.3333 111.106 49.24C111.253 49.1333 111.413 49.08 111.586 49.08C111.879 49.08 112.093 49.26 112.226 49.62C112.373 49.9667 112.446 50.4133 112.446 50.96C112.446 51.36 112.413 51.78 112.346 52.22C112.186 53.2333 111.879 54.12 111.426 54.88C110.973 55.64 110.453 56.2267 109.866 56.64C109.279 57.0533 108.719 57.26 108.186 57.26ZM116.141 57.24C115.314 57.24 114.687 56.9733 114.261 56.44C113.834 55.9067 113.621 55.2133 113.621 54.36C113.621 54.0533 113.654 53.7 113.721 53.3C113.841 52.6333 114.121 51.9667 114.561 51.3C115.001 50.6333 115.541 50.0867 116.181 49.66C116.834 49.2333 117.514 49.02 118.221 49.02C118.634 49.02 118.954 49.1 119.181 49.26C119.407 49.4067 119.521 49.6133 119.521 49.88C119.521 49.9733 119.514 50.0467 119.501 50.1C119.407 50.5 119.114 50.8867 118.621 51.26C118.141 51.62 117.527 51.9333 116.781 52.2C116.034 52.4667 115.241 52.6467 114.401 52.74L114.441 52.48C115.521 52.3333 116.407 52.0933 117.101 51.76C117.794 51.4267 118.207 51.0133 118.341 50.52C118.367 50.4533 118.381 50.36 118.381 50.24C118.381 50 118.281 49.8267 118.081 49.72C117.881 49.6133 117.641 49.56 117.361 49.56C116.667 49.56 116.094 49.8533 115.641 50.44C115.201 51.0133 114.907 51.7467 114.761 52.64C114.681 53.0533 114.641 53.4533 114.641 53.84C114.641 54.68 114.827 55.3533 115.201 55.86C115.587 56.3533 116.121 56.6 116.801 56.6C117.574 56.6 118.261 56.38 118.861 55.94H118.901C118.941 55.94 118.974 55.96 119.001 56C119.041 56.04 119.041 56.08 119.001 56.12C118.054 56.8667 117.101 57.24 116.141 57.24ZM121.638 57.18C121.411 57.18 121.245 57.1133 121.138 56.98C121.031 56.8467 120.978 56.6267 120.978 56.32C120.978 56.12 121.025 55.7533 121.118 55.22L123.138 44.46C123.165 44.2733 123.178 44.1533 123.178 44.1C123.178 43.7667 123.038 43.6 122.758 43.6C122.518 43.6 122.185 43.7067 121.758 43.92H121.718C121.665 43.92 121.625 43.8867 121.598 43.82C121.585 43.7533 121.605 43.7133 121.658 43.7L124.118 42.5H124.158C124.211 42.5 124.258 42.52 124.298 42.56C124.338 42.6 124.351 42.6333 124.338 42.66L121.998 55.22C121.945 55.5133 121.918 55.7067 121.918 55.8C121.918 56 121.958 56.16 122.038 56.28C122.118 56.3867 122.218 56.44 122.338 56.44C122.631 56.44 123.091 56.1133 123.718 55.46C123.745 55.4333 123.771 55.42 123.798 55.42C123.838 55.42 123.871 55.4467 123.898 55.5C123.925 55.54 123.918 55.58 123.878 55.62C123.411 56.1533 122.998 56.5467 122.638 56.8C122.291 57.0533 121.958 57.18 121.638 57.18ZM127.605 57.28C126.832 57.28 126.225 57 125.785 56.44C125.345 55.88 125.125 55.14 125.125 54.22C125.125 53.82 125.158 53.46 125.225 53.14C125.372 52.38 125.645 51.6867 126.045 51.06C126.458 50.42 126.958 49.92 127.545 49.56C128.132 49.2 128.745 49.02 129.385 49.02C130.198 49.02 130.825 49.3067 131.265 49.88C131.718 50.44 131.945 51.16 131.945 52.04C131.945 52.3867 131.905 52.7533 131.825 53.14C131.665 53.9533 131.365 54.6733 130.925 55.3C130.485 55.9267 129.972 56.4133 129.385 56.76C128.798 57.1067 128.205 57.28 127.605 57.28ZM128.305 56.78C128.905 56.78 129.445 56.5333 129.925 56.04C130.418 55.5467 130.745 54.8733 130.905 54.02C130.972 53.6467 131.005 53.2867 131.005 52.94C131.005 52.02 130.812 51.22 130.425 50.54C130.052 49.8467 129.512 49.5 128.805 49.5C128.192 49.5 127.638 49.76 127.145 50.28C126.652 50.7867 126.318 51.4533 126.145 52.28C126.065 52.64 126.025 53.0133 126.025 53.4C126.025 54.32 126.225 55.1133 126.625 55.78C127.038 56.4467 127.598 56.78 128.305 56.78ZM131.375 62.5C131.321 62.5133 131.288 62.48 131.275 62.4C131.261 62.32 131.281 62.2733 131.335 62.26C131.655 62.2067 131.888 62.14 132.035 62.06C132.181 61.98 132.295 61.84 132.375 61.64C132.441 61.4533 132.515 61.14 132.595 60.7L134.635 49.28C134.635 49.2533 134.708 49.16 134.855 49C135.015 48.84 135.155 48.6667 135.275 48.48C135.408 48.2933 135.495 48.08 135.535 47.84C135.535 47.8 135.568 47.78 135.635 47.78C135.661 47.78 135.688 47.7933 135.715 47.82C135.755 47.8333 135.768 47.8533 135.755 47.88L133.495 60.56C133.455 60.7867 133.435 60.9667 133.435 61.1C133.435 61.3533 133.495 61.5333 133.615 61.64C133.735 61.76 133.928 61.82 134.195 61.82C134.261 61.82 134.428 61.8067 134.695 61.78H134.715C134.755 61.78 134.781 61.8133 134.795 61.88C134.808 61.9467 134.788 61.9867 134.735 62L131.375 62.5ZM135.375 57.02C134.748 57.02 134.308 56.9933 134.055 56.94C133.801 56.8867 133.655 56.8533 133.615 56.84L133.815 55.84C134.428 56.2533 135.121 56.46 135.895 56.46C136.788 56.46 137.501 56.1133 138.035 55.42C138.568 54.7133 138.915 53.7733 139.075 52.6C139.115 52.2933 139.135 52.0067 139.135 51.74C139.135 51.14 139.008 50.6667 138.755 50.32C138.515 49.9733 138.088 49.8 137.475 49.8C136.888 49.8 136.301 49.9667 135.715 50.3C135.128 50.62 134.368 51.1533 133.435 51.9H133.415C133.375 51.9 133.328 51.8733 133.275 51.82C133.235 51.7667 133.235 51.7333 133.275 51.72C135.168 50 136.801 49.14 138.175 49.14C138.801 49.14 139.275 49.32 139.595 49.68C139.928 50.0267 140.095 50.54 140.095 51.22C140.095 51.4333 140.075 51.6733 140.035 51.94C139.915 52.8333 139.615 53.6733 139.135 54.46C138.668 55.2333 138.095 55.8533 137.415 56.32C136.748 56.7867 136.068 57.02 135.375 57.02ZM143.699 57.24C142.872 57.24 142.246 56.9733 141.819 56.44C141.392 55.9067 141.179 55.2133 141.179 54.36C141.179 54.0533 141.212 53.7 141.279 53.3C141.399 52.6333 141.679 51.9667 142.119 51.3C142.559 50.6333 143.099 50.0867 143.739 49.66C144.392 49.2333 145.072 49.02 145.779 49.02C146.192 49.02 146.512 49.1 146.739 49.26C146.966 49.4067 147.079 49.6133 147.079 49.88C147.079 49.9733 147.072 50.0467 147.059 50.1C146.966 50.5 146.672 50.8867 146.179 51.26C145.699 51.62 145.086 51.9333 144.339 52.2C143.592 52.4667 142.799 52.6467 141.959 52.74L141.999 52.48C143.079 52.3333 143.966 52.0933 144.659 51.76C145.352 51.4267 145.766 51.0133 145.899 50.52C145.926 50.4533 145.939 50.36 145.939 50.24C145.939 50 145.839 49.8267 145.639 49.72C145.439 49.6133 145.199 49.56 144.919 49.56C144.226 49.56 143.652 49.8533 143.199 50.44C142.759 51.0133 142.466 51.7467 142.319 52.64C142.239 53.0533 142.199 53.4533 142.199 53.84C142.199 54.68 142.386 55.3533 142.759 55.86C143.146 56.3533 143.679 56.6 144.359 56.6C145.132 56.6 145.819 56.38 146.419 55.94H146.459C146.499 55.94 146.532 55.96 146.559 56C146.599 56.04 146.599 56.08 146.559 56.12C145.612 56.8667 144.659 57.24 143.699 57.24ZM149.296 56.86C149.483 55.8467 149.79 54.7267 150.216 53.5C150.656 52.2733 151.136 51.2333 151.656 50.38C152.19 49.5267 152.683 49.1 153.136 49.1C153.403 49.1 153.65 49.2067 153.876 49.42C154.103 49.6333 154.19 49.8733 154.136 50.14C154.056 50.46 153.863 50.62 153.556 50.62C153.41 50.62 153.296 50.5867 153.216 50.52C153.136 50.4533 153.056 50.3533 152.976 50.22C152.936 50.1533 152.883 50.0933 152.816 50.04C152.763 49.9733 152.696 49.94 152.616 49.94C152.31 49.94 151.943 50.3333 151.516 51.12C151.103 51.9067 150.703 52.8533 150.316 53.96C149.943 55.0667 149.67 56.04 149.496 56.88L149.296 56.86ZM148.996 57.16C148.823 57.16 148.71 57.1467 148.656 57.12C148.616 57.1067 148.596 57.08 148.596 57.04L148.696 56.58L148.896 55.52L149.516 52.02C149.61 51.5533 149.656 51.1533 149.656 50.82C149.656 50.1667 149.483 49.84 149.136 49.84C148.83 49.84 148.423 50.08 147.916 50.56L147.876 50.58C147.85 50.58 147.816 50.56 147.776 50.52C147.75 50.4667 147.743 50.4267 147.756 50.4C148.516 49.5333 149.21 49.1 149.836 49.1C150.076 49.1 150.256 49.1867 150.376 49.36C150.51 49.5333 150.576 49.8333 150.576 50.26C150.576 50.7133 150.51 51.3 150.376 52.02L149.496 56.88C149.483 56.96 149.43 57.0267 149.336 57.08C149.256 57.1333 149.143 57.16 148.996 57.16Z" fill="#F9F9F9"/>
</svg>
