<svg width="128" height="128" viewBox="0 0 128 128" fill="none" xmlns="http://www.w3.org/2000/svg">
<path d="M3.65603 45.043C3.65603 45.043 0.629031 42.852 4.26603 39.93L12.734 32.336C12.734 32.336 15.16 29.777 17.723 32.008L95.898 91.336V119.786C95.898 119.786 95.859 124.254 90.141 123.762L3.65603 45.043Z" fill="#323330" fill-opacity="0.88"/>
<path d="M23.809 63.379L3.65596 81.742C3.65596 81.742 1.58596 83.285 3.65596 86.047L13.012 94.574C13.012 94.574 15.234 96.969 18.52 94.246L39.879 78.008L23.809 63.379Z" fill="#5F605E"/>
<path d="M59.184 63.531L96.137 35.246L95.898 6.94899C95.898 6.94899 94.32 0.772995 89.055 3.99L39.879 48.851L59.184 63.531Z" fill="#323330" fill-opacity="0.78"/>
<path d="M90.1401 123.797C92.2851 126 94.8871 125.277 94.8871 125.277L123.684 111.055C127.371 108.535 126.855 105.41 126.855 105.41V20.465C126.855 16.73 123.043 15.441 123.043 15.441L98.0821 3.38C92.6291 0.000997543 89.0551 3.99 89.0551 3.99C89.0551 3.99 93.6481 0.672997 95.8981 6.95V119.267C95.8981 120.04 95.7341 120.797 95.4061 121.481C94.7501 122.813 93.3201 124.051 89.9021 123.532L90.1401 123.797Z" fill="#323330"/>
</svg>
